<svg xmlns="http://www.w3.org/2000/svg" xmlns:xlink="http://www.w3.org/1999/xlink" width="500" zoomAndPan="magnify" viewBox="0 0 375 374.999991" height="500" preserveAspectRatio="xMidYMid meet" version="1.0"><defs><clipPath id="3c68ce8ff7"><path d="M 94.484375 94.484375 L 280.484375 94.484375 L 280.484375 280.484375 L 94.484375 280.484375 Z M 94.484375 94.484375 " clip-rule="nonzero"/></clipPath><clipPath id="d1b4e65ff7"><path d="M 94.484375 94.484375 L 280.484375 94.484375 L 280.484375 280.484375 L 94.484375 280.484375 Z M 94.484375 94.484375 " clip-rule="nonzero"/></clipPath></defs><g clip-path="url(#3c68ce8ff7)"><path fill="#186b80" d="M 280.507812 152.417969 L 280.507812 217.421875 C 280.507812 219.523438 279.378906 221.480469 277.558594 222.53125 L 274.15625 224.492188 C 274.109375 224.523438 274.050781 224.535156 273.996094 224.535156 C 273.941406 224.535156 273.882812 224.523438 273.832031 224.492188 L 261.867188 217.582031 L 261.867188 241.824219 C 261.867188 243.917969 260.742188 245.871094 258.933594 246.921875 L 202.628906 279.6875 C 201.714844 280.21875 200.691406 280.484375 199.664062 280.484375 C 198.644531 280.484375 197.625 280.222656 196.714844 279.699219 L 111.9375 230.75 C 110.761719 230.074219 110.03125 228.808594 110.03125 227.453125 L 110.03125 220.308594 C 110.03125 218.933594 110.746094 217.699219 111.9375 217.011719 L 116.636719 214.296875 L 96.386719 202.609375 C 95.195312 201.917969 94.484375 200.6875 94.484375 199.308594 C 94.484375 197.933594 95.195312 196.699219 96.386719 196.011719 L 153.03125 163.308594 C 153.128906 163.25 153.253906 163.25 153.355469 163.308594 L 168.417969 172.007812 L 168.417969 170.21875 L 158.003906 164.207031 C 157.90625 164.148438 157.84375 164.042969 157.84375 163.925781 L 157.84375 98.519531 C 157.84375 97.015625 158.695312 95.6875 160.066406 95.058594 C 161.199219 94.539062 162.46875 94.597656 163.554688 95.222656 L 180.871094 105.222656 C 180.875 103.726562 181.714844 102.410156 183.070312 101.777344 C 183.074219 101.777344 183.074219 101.773438 183.074219 101.773438 L 189.3125 98.4375 C 190.480469 97.8125 191.863281 97.835938 193.011719 98.5 L 277.558594 147.3125 C 278.453125 147.828125 279.199219 148.574219 279.71875 149.46875 C 279.71875 149.46875 279.71875 149.46875 279.71875 149.472656 C 280.234375 150.367188 280.507812 151.386719 280.507812 152.417969 Z M 280.507812 152.417969 " fill-opacity="1" fill-rule="nonzero"/></g><path fill="#e03932" d="M 112.261719 217.574219 L 117.285156 214.671875 L 118.371094 215.300781 L 112.804688 218.511719 C 111.867188 219.054688 111.765625 219.949219 111.765625 220.308594 C 111.765625 220.667969 111.867188 221.566406 112.804688 222.105469 L 197.59375 271.058594 C 198.226562 271.425781 198.945312 271.617188 199.675781 271.617188 C 200.40625 271.617188 201.125 271.425781 201.757812 271.058594 L 258.238281 238.449219 C 258.335938 238.390625 258.398438 238.285156 258.398438 238.167969 C 258.398438 238.054688 258.335938 237.945312 258.238281 237.886719 L 234.496094 224.179688 L 235.582031 223.554688 L 236.167969 223.894531 L 260.894531 238.167969 L 202.300781 272 C 200.679688 272.933594 198.667969 272.933594 197.050781 272 L 112.261719 223.046875 C 111.273438 222.472656 110.683594 221.453125 110.683594 220.308594 C 110.683594 219.167969 111.273438 218.144531 112.261719 217.574219 Z M 229.886719 238.6875 C 229.894531 238.691406 229.902344 238.691406 229.910156 238.695312 C 229.929688 238.707031 229.953125 238.714844 229.980469 238.722656 C 229.992188 238.726562 230.003906 238.726562 230.019531 238.730469 C 230.042969 238.734375 230.0625 238.738281 230.085938 238.742188 C 230.101562 238.742188 230.113281 238.742188 230.128906 238.742188 C 230.152344 238.742188 230.175781 238.742188 230.199219 238.742188 C 230.214844 238.738281 230.226562 238.734375 230.242188 238.734375 C 230.261719 238.730469 230.28125 238.726562 230.300781 238.722656 L 226.421875 236.480469 L 226.367188 236.449219 C 226.328125 236.425781 226.28125 236.414062 226.226562 236.40625 C 226.171875 236.394531 226.117188 236.390625 226.0625 236.394531 C 226.023438 236.398438 225.988281 236.402344 225.957031 236.414062 Z M 236.722656 240.910156 C 236.742188 240.90625 236.761719 240.902344 236.78125 240.898438 L 227.71875 235.664062 C 227.644531 235.621094 227.523438 235.601562 227.414062 235.609375 C 227.375 235.613281 227.339844 235.617188 227.308594 235.628906 L 236.367188 240.863281 C 236.394531 240.878906 236.425781 240.890625 236.457031 240.898438 C 236.464844 240.898438 236.472656 240.898438 236.476562 240.902344 C 236.503906 240.90625 236.535156 240.914062 236.566406 240.914062 C 236.574219 240.914062 236.585938 240.914062 236.59375 240.914062 C 236.621094 240.917969 236.648438 240.917969 236.675781 240.914062 C 236.691406 240.914062 236.707031 240.910156 236.722656 240.910156 Z M 191.660156 255.988281 C 191.871094 256.121094 192.089844 256.253906 192.3125 256.382812 C 199.792969 260.699219 211.921875 260.699219 219.351562 256.382812 C 222.492188 254.558594 224.410156 252.15625 224.757812 249.617188 C 224.773438 249.484375 224.789062 249.355469 224.796875 249.222656 C 224.800781 249.179688 224.800781 249.132812 224.804688 249.085938 C 224.808594 249 224.8125 248.914062 224.8125 248.828125 C 224.8125 248.777344 224.8125 248.722656 224.808594 248.667969 C 224.808594 248.589844 224.808594 248.511719 224.804688 248.433594 C 224.800781 248.378906 224.796875 248.324219 224.789062 248.265625 C 224.785156 248.191406 224.78125 248.117188 224.769531 248.042969 C 224.765625 247.984375 224.753906 247.925781 224.746094 247.867188 C 224.734375 247.796875 224.726562 247.726562 224.714844 247.652344 C 224.703125 247.59375 224.6875 247.535156 224.675781 247.476562 C 224.660156 247.40625 224.648438 247.335938 224.628906 247.265625 C 224.617188 247.207031 224.597656 247.144531 224.582031 247.085938 C 224.5625 247.015625 224.542969 246.949219 224.523438 246.878906 C 224.503906 246.820312 224.484375 246.757812 224.464844 246.699219 C 224.441406 246.632812 224.417969 246.5625 224.390625 246.496094 C 224.371094 246.4375 224.34375 246.375 224.320312 246.316406 C 224.292969 246.25 224.265625 246.183594 224.238281 246.117188 C 224.210938 246.054688 224.183594 245.996094 224.152344 245.933594 C 224.121094 245.871094 224.089844 245.804688 224.058594 245.738281 C 224.027344 245.679688 223.996094 245.621094 223.960938 245.558594 C 223.925781 245.496094 223.890625 245.429688 223.855469 245.367188 C 223.820312 245.304688 223.785156 245.246094 223.746094 245.1875 C 223.707031 245.125 223.667969 245.058594 223.628906 244.996094 C 223.589844 244.9375 223.550781 244.878906 223.507812 244.820312 C 223.464844 244.757812 223.421875 244.695312 223.378906 244.632812 C 223.335938 244.574219 223.292969 244.515625 223.246094 244.457031 C 223.199219 244.394531 223.152344 244.332031 223.101562 244.269531 C 223.058594 244.210938 223.007812 244.15625 222.960938 244.097656 C 222.910156 244.035156 222.859375 243.976562 222.804688 243.914062 C 222.753906 243.859375 222.703125 243.800781 222.652344 243.742188 C 222.625 243.714844 222.597656 243.6875 222.570312 243.65625 L 209.660156 251.160156 C 207.539062 252.394531 204.074219 252.394531 201.941406 251.160156 C 200.84375 250.527344 200.238281 249.664062 200.234375 248.730469 C 200.234375 247.804688 200.832031 246.949219 201.917969 246.316406 L 214.398438 239.0625 C 214.238281 239.015625 214.078125 238.964844 213.914062 238.921875 C 213.796875 238.886719 213.683594 238.855469 213.566406 238.824219 C 213.136719 238.714844 212.707031 238.609375 212.269531 238.519531 C 212.207031 238.507812 212.144531 238.496094 212.082031 238.484375 C 211.703125 238.40625 211.320312 238.335938 210.933594 238.273438 C 210.800781 238.253906 210.667969 238.234375 210.535156 238.214844 C 210.441406 238.199219 210.351562 238.191406 210.257812 238.175781 L 187.355469 251.398438 C 188.109375 253.089844 189.574219 254.660156 191.660156 255.988281 Z M 228.035156 232.140625 L 234.085938 228.628906 L 231.835938 227.332031 C 231.789062 227.300781 231.746094 227.257812 231.71875 227.210938 L 231.109375 226.136719 L 224.371094 230.027344 Z M 120.40625 219.441406 C 120.355469 219.472656 120.300781 219.484375 120.246094 219.484375 C 120.1875 219.484375 120.132812 219.472656 120.082031 219.441406 L 117.886719 218.175781 C 117.785156 218.117188 117.722656 218.007812 117.722656 217.894531 C 117.722656 217.867188 117.726562 217.839844 117.734375 217.8125 L 113.648438 220.1875 L 120.839844 224.339844 L 125.410156 224.105469 L 129.503906 221.726562 L 122.96875 217.953125 Z M 138.96875 228.5 C 138.96875 228.542969 138.921875 228.625 138.785156 228.703125 L 134.488281 231.199219 C 134.128906 231.410156 133.496094 231.410156 133.132812 231.199219 L 124.84375 226.414062 C 124.703125 226.332031 124.65625 226.253906 124.65625 226.207031 C 124.65625 226.160156 124.703125 226.082031 124.839844 226.003906 L 129.136719 223.503906 C 129.316406 223.402344 129.5625 223.347656 129.8125 223.347656 C 130.0625 223.347656 130.308594 223.402344 130.492188 223.503906 L 138.78125 228.289062 C 138.917969 228.371094 138.96875 228.453125 138.96875 228.5 Z M 130.667969 225.195312 C 130.667969 224.96875 130.546875 224.773438 130.339844 224.652344 C 129.800781 224.339844 128.769531 224.601562 128.074219 225.007812 C 127.480469 225.351562 127.140625 225.769531 127.140625 226.152344 C 127.140625 226.375 127.261719 226.574219 127.46875 226.695312 C 127.632812 226.789062 127.847656 226.832031 128.082031 226.832031 C 128.609375 226.832031 129.253906 226.621094 129.734375 226.339844 C 130.328125 225.996094 130.667969 225.578125 130.667969 225.195312 Z M 136.484375 228.554688 C 136.484375 228.496094 136.476562 228.441406 136.460938 228.390625 C 136.417969 228.234375 136.3125 228.101562 136.15625 228.011719 C 136.019531 227.933594 135.855469 227.890625 135.671875 227.878906 C 135.121094 227.839844 134.410156 228.0625 133.886719 228.363281 C 133.445312 228.625 133.140625 228.921875 133.019531 229.21875 C 132.976562 229.316406 132.957031 229.414062 132.957031 229.507812 C 132.957031 229.734375 133.074219 229.933594 133.285156 230.054688 C 133.449219 230.148438 133.660156 230.191406 133.894531 230.191406 C 134.425781 230.191406 135.070312 229.976562 135.550781 229.699219 C 135.699219 229.613281 135.832031 229.519531 135.945312 229.425781 C 136.292969 229.148438 136.484375 228.839844 136.484375 228.554688 Z M 141.824219 233.171875 C 141.820312 233.183594 141.816406 233.195312 141.816406 233.207031 C 141.816406 233.230469 141.828125 233.253906 141.851562 233.28125 C 141.871094 233.304688 141.90625 233.332031 141.945312 233.355469 C 142.285156 233.550781 142.941406 233.511719 143.351562 233.273438 C 143.535156 233.164062 143.617188 233.046875 143.617188 232.980469 C 143.617188 232.933594 143.570312 232.878906 143.488281 232.832031 C 143.339844 232.75 143.136719 232.707031 142.917969 232.707031 C 142.628906 232.707031 142.316406 232.777344 142.082031 232.914062 C 141.992188 232.96875 141.925781 233.023438 141.882812 233.074219 C 141.878906 233.074219 141.878906 233.074219 141.878906 233.074219 C 141.847656 233.109375 141.832031 233.144531 141.824219 233.171875 Z M 144.585938 234.878906 L 166.628906 247.601562 C 166.8125 247.710938 167.070312 247.765625 167.328125 247.765625 C 167.519531 247.765625 167.710938 247.734375 167.875 247.675781 C 167.929688 247.65625 167.980469 247.628906 168.027344 247.605469 L 168.171875 247.519531 C 168.316406 247.4375 168.367188 247.351562 168.367188 247.300781 C 168.367188 247.253906 168.320312 247.191406 168.25 247.136719 C 168.226562 247.117188 168.199219 247.097656 168.167969 247.082031 L 146.125 234.355469 C 145.9375 234.246094 145.679688 234.191406 145.425781 234.191406 C 145.167969 234.191406 144.910156 234.246094 144.726562 234.355469 L 144.578125 234.441406 C 144.4375 234.523438 144.386719 234.605469 144.386719 234.65625 C 144.386719 234.722656 144.464844 234.808594 144.585938 234.878906 Z M 139.703125 234.410156 L 165.15625 249.105469 C 165.171875 249.113281 165.191406 249.121094 165.210938 249.125 L 139.757812 234.429688 C 139.746094 234.421875 139.726562 234.414062 139.703125 234.410156 Z M 165.492188 249.285156 C 165.492188 249.285156 165.492188 249.289062 165.496094 249.289062 L 165.652344 249.003906 Z M 202.839844 268.621094 L 200.222656 270.144531 L 170.773438 253.144531 L 175.007812 250.683594 L 202.828125 266.746094 Z M 183.707031 257.902344 C 183.707031 257.789062 183.644531 257.679688 183.546875 257.621094 L 179.242188 255.136719 L 180.257812 254.550781 C 180.355469 254.492188 180.417969 254.382812 180.417969 254.269531 C 180.417969 254.183594 180.382812 254.101562 180.324219 254.039062 C 180.304688 254.019531 180.28125 254.003906 180.257812 253.988281 L 175.1875 251.0625 C 175.089844 251.003906 174.964844 251.003906 174.863281 251.0625 L 171.867188 252.804688 C 171.769531 252.863281 171.707031 252.96875 171.707031 253.085938 C 171.707031 253.199219 171.769531 253.308594 171.867188 253.363281 L 181.722656 259.054688 C 181.773438 259.082031 181.832031 259.097656 181.886719 259.097656 C 181.941406 259.097656 182 259.082031 182.050781 259.054688 L 183.546875 258.183594 C 183.648438 258.125 183.707031 258.019531 183.707031 257.902344 Z M 202.523438 267.039062 C 202.523438 266.863281 202.425781 266.710938 202.257812 266.613281 L 189.433594 259.207031 C 189.324219 259.144531 189.191406 259.113281 189.058594 259.109375 C 189.046875 259.109375 189.035156 259.105469 189.023438 259.105469 C 188.996094 259.105469 188.972656 259.113281 188.945312 259.113281 C 188.898438 259.117188 188.851562 259.121094 188.808594 259.132812 C 188.738281 259.148438 188.671875 259.175781 188.613281 259.207031 C 188.453125 259.300781 188.363281 259.449219 188.355469 259.609375 C 188.355469 259.617188 188.351562 259.625 188.351562 259.632812 C 188.351562 259.667969 188.355469 259.699219 188.363281 259.730469 C 188.367188 259.738281 188.367188 259.75 188.367188 259.757812 C 188.390625 259.828125 188.429688 259.890625 188.480469 259.945312 C 188.519531 259.988281 188.5625 260.023438 188.617188 260.054688 L 201.441406 267.460938 C 201.558594 267.527344 201.707031 267.5625 201.851562 267.5625 C 201.996094 267.5625 202.140625 267.527344 202.261719 267.460938 C 202.429688 267.363281 202.523438 267.207031 202.523438 267.039062 Z M 273.671875 155.992188 C 273.671875 155.070312 273.429688 154.164062 272.96875 153.367188 C 272.507812 152.570312 271.84375 151.90625 271.046875 151.445312 L 186.257812 102.492188 C 185.359375 101.972656 184.304688 101.921875 183.363281 102.355469 C 182.226562 102.878906 181.519531 103.980469 181.519531 105.226562 L 181.519531 105.59375 L 182.605469 106.222656 L 182.605469 105.230469 C 182.605469 104.394531 183.058594 103.691406 183.816406 103.339844 C 184.425781 103.0625 185.125 103.089844 185.714844 103.433594 L 270.503906 152.386719 C 271.136719 152.75 271.664062 153.277344 272.03125 153.910156 C 272.394531 154.542969 272.585938 155.261719 272.585938 155.992188 L 272.585938 221.210938 C 272.585938 221.324219 272.523438 221.433594 272.425781 221.492188 C 272.375 221.519531 272.316406 221.535156 272.261719 221.535156 C 272.207031 221.535156 272.152344 221.519531 272.101562 221.492188 L 261.867188 215.582031 L 261.867188 216.835938 L 273.671875 223.652344 Z M 273.671875 155.992188 " fill-opacity="1" fill-rule="nonzero"/><path fill="#fff8ea" d="M 233.847656 224.554688 L 231.671875 225.8125 L 232.238281 226.8125 L 234.894531 228.34375 C 234.996094 228.402344 235.054688 228.511719 235.058594 228.625 C 235.058594 228.742188 234.996094 228.847656 234.894531 228.90625 L 228.199219 232.796875 C 228.148438 232.828125 228.09375 232.839844 228.035156 232.839844 C 227.980469 232.839844 227.925781 232.828125 227.875 232.796875 L 223.722656 230.402344 L 223.4375 230.566406 L 223.445312 230.570312 C 223.492188 230.601562 223.535156 230.640625 223.5625 230.691406 L 224.234375 231.878906 L 226.890625 233.410156 C 226.992188 233.46875 227.050781 233.578125 227.054688 233.691406 C 227.054688 233.808594 226.992188 233.914062 226.890625 233.972656 L 220.195312 237.863281 C 220.144531 237.894531 220.089844 237.90625 220.035156 237.90625 C 219.976562 237.90625 219.921875 237.894531 219.871094 237.863281 L 215.332031 235.246094 L 214.890625 235.5 L 217.882812 237.226562 L 225.300781 241.507812 L 237.332031 248.457031 C 237.433594 248.511719 237.496094 248.621094 237.496094 248.738281 C 237.496094 248.851562 237.433594 248.960938 237.335938 249.015625 L 206.050781 267.195312 C 206.003906 267.226562 205.945312 267.238281 205.890625 267.238281 C 205.832031 267.238281 205.777344 267.226562 205.726562 267.195312 L 174.488281 249.160156 L 170.757812 251.328125 C 170.710938 251.355469 170.660156 251.371094 170.609375 251.371094 L 165.796875 251.601562 C 165.792969 251.601562 165.789062 251.601562 165.78125 251.601562 C 165.726562 251.601562 165.671875 251.585938 165.621094 251.558594 L 135.832031 234.359375 C 135.71875 234.292969 135.65625 234.164062 135.675781 234.035156 L 136.050781 231.25 C 136.066406 231.148438 136.125 231.0625 136.210938 231.011719 L 140.15625 228.71875 C 140.257812 228.660156 140.378906 228.660156 140.480469 228.71875 L 174.453125 248.332031 L 175.019531 248.003906 L 130.148438 222.101562 C 130.148438 222.101562 130.144531 222.105469 130.144531 222.105469 L 125.667969 224.707031 C 125.625 224.734375 125.574219 224.746094 125.523438 224.75 L 120.777344 224.992188 C 120.769531 224.992188 120.765625 224.992188 120.757812 224.992188 C 120.703125 224.992188 120.644531 224.976562 120.597656 224.949219 L 112.839844 220.46875 C 112.738281 220.410156 112.679688 220.304688 112.679688 220.1875 C 112.679688 220.074219 112.738281 219.96875 112.839844 219.910156 L 119.574219 215.996094 L 119.019531 215.671875 L 113.128906 219.074219 C 112.484375 219.445312 112.414062 220.0625 112.414062 220.308594 C 112.414062 220.558594 112.484375 221.171875 113.128906 221.542969 L 197.917969 270.496094 C 198.984375 271.113281 200.363281 271.113281 201.433594 270.496094 L 257.425781 238.167969 Z M 133.8125 232.003906 C 133.449219 232.003906 133.089844 231.925781 132.808594 231.761719 L 124.519531 226.976562 C 124.195312 226.789062 124.007812 226.507812 124.007812 226.207031 C 124.007812 225.90625 124.191406 225.628906 124.511719 225.441406 L 128.8125 222.945312 C 129.371094 222.617188 130.25 222.617188 130.816406 222.945312 L 139.105469 227.730469 C 139.429688 227.917969 139.617188 228.199219 139.617188 228.5 C 139.617188 228.796875 139.433594 229.078125 139.109375 229.261719 L 134.8125 231.761719 C 134.53125 231.925781 134.171875 232.003906 133.8125 232.003906 Z M 203.328125 269.089844 L 200.386719 270.800781 C 200.335938 270.828125 200.277344 270.84375 200.222656 270.84375 C 200.164062 270.84375 200.109375 270.828125 200.058594 270.800781 L 169.964844 253.425781 C 169.863281 253.367188 169.800781 253.257812 169.800781 253.144531 C 169.800781 253.027344 169.863281 252.921875 169.964844 252.863281 L 174.84375 250.027344 C 174.945312 249.96875 175.066406 249.96875 175.167969 250.027344 L 203.316406 266.277344 C 203.414062 266.335938 203.476562 266.441406 203.476562 266.554688 L 203.488281 268.804688 C 203.492188 268.921875 203.429688 269.03125 203.328125 269.089844 Z M 250.242188 241.246094 L 238.007812 248.355469 C 237.957031 248.382812 237.898438 248.398438 237.84375 248.398438 C 237.789062 248.398438 237.730469 248.382812 237.679688 248.355469 L 220.445312 238.40625 C 220.347656 238.347656 220.285156 238.238281 220.285156 238.125 C 220.285156 238.007812 220.34375 237.902344 220.445312 237.84375 L 237.566406 227.894531 C 237.667969 227.835938 237.792969 227.835938 237.894531 227.894531 L 248.941406 234.273438 C 249.023438 234.320312 249.078125 234.398438 249.097656 234.488281 L 250.398438 240.898438 C 250.425781 241.035156 250.363281 241.175781 250.242188 241.246094 Z M 208.8125 250.859375 C 208.765625 250.878906 208.714844 250.902344 208.664062 250.921875 C 208.609375 250.945312 208.554688 250.96875 208.5 250.988281 C 208.417969 251.015625 208.335938 251.042969 208.257812 251.070312 C 208.199219 251.089844 208.144531 251.109375 208.089844 251.125 C 208 251.152344 207.90625 251.175781 207.816406 251.199219 C 207.765625 251.210938 207.714844 251.226562 207.664062 251.238281 C 207.542969 251.265625 207.417969 251.289062 207.292969 251.3125 C 207.269531 251.316406 207.246094 251.324219 207.222656 251.328125 C 207.074219 251.351562 206.925781 251.375 206.777344 251.390625 C 206.726562 251.394531 206.679688 251.398438 206.628906 251.402344 C 206.527344 251.414062 206.421875 251.421875 206.320312 251.429688 C 206.261719 251.433594 206.199219 251.433594 206.140625 251.4375 C 206.046875 251.441406 205.953125 251.441406 205.859375 251.445312 C 205.792969 251.445312 205.730469 251.441406 205.667969 251.441406 C 205.578125 251.441406 205.488281 251.4375 205.398438 251.433594 C 205.332031 251.429688 205.265625 251.425781 205.203125 251.421875 C 205.113281 251.414062 205.027344 251.410156 204.9375 251.398438 C 204.871094 251.394531 204.808594 251.386719 204.742188 251.378906 C 204.65625 251.367188 204.570312 251.355469 204.484375 251.339844 C 204.421875 251.332031 204.355469 251.320312 204.292969 251.308594 C 204.207031 251.292969 204.125 251.273438 204.039062 251.257812 C 203.976562 251.242188 203.914062 251.230469 203.851562 251.214844 C 203.769531 251.195312 203.6875 251.171875 203.601562 251.148438 C 203.542969 251.132812 203.484375 251.117188 203.425781 251.097656 C 203.34375 251.070312 203.261719 251.042969 203.179688 251.011719 C 203.125 250.992188 203.070312 250.976562 203.019531 250.953125 C 202.929688 250.921875 202.84375 250.882812 202.757812 250.84375 C 202.714844 250.824219 202.671875 250.808594 202.628906 250.789062 C 202.503906 250.730469 202.382812 250.664062 202.265625 250.597656 C 201.375 250.085938 200.886719 249.421875 200.882812 248.730469 C 200.882812 248.648438 200.890625 248.566406 200.90625 248.480469 C 200.910156 248.453125 200.917969 248.425781 200.925781 248.398438 C 200.9375 248.34375 200.949219 248.292969 200.96875 248.238281 C 200.980469 248.207031 200.996094 248.175781 201.007812 248.140625 C 201.027344 248.09375 201.046875 248.046875 201.070312 248 C 201.089844 247.964844 201.109375 247.933594 201.128906 247.898438 C 201.15625 247.855469 201.183594 247.808594 201.214844 247.765625 C 201.238281 247.734375 201.265625 247.699219 201.292969 247.667969 C 201.324219 247.625 201.359375 247.582031 201.398438 247.539062 C 201.425781 247.507812 201.460938 247.476562 201.492188 247.445312 C 201.53125 247.402344 201.574219 247.363281 201.617188 247.324219 C 201.652344 247.292969 201.691406 247.261719 201.730469 247.230469 C 201.777344 247.191406 201.824219 247.15625 201.875 247.117188 C 201.917969 247.085938 201.960938 247.058594 202.003906 247.027344 C 202.03125 247.011719 202.058594 246.992188 202.085938 246.976562 Z M 211.15625 237.65625 L 214.242188 235.875 L 217.074219 237.507812 L 215.175781 238.609375 C 213.882812 238.199219 212.53125 237.886719 211.15625 237.65625 Z M 184.125 252.347656 C 185.039062 252.347656 185.953125 252.136719 186.785156 251.714844 C 187.679688 253.683594 189.449219 255.480469 191.988281 256.945312 C 199.648438 261.367188 212.066406 261.367188 219.679688 256.945312 C 220.09375 256.703125 220.488281 256.453125 220.859375 256.191406 C 223.289062 254.5 224.839844 252.425781 225.308594 250.21875 C 225.34375 250.046875 225.375 249.875 225.398438 249.707031 C 225.703125 247.472656 224.925781 245.273438 223.148438 243.320312 L 225.136719 242.164062 L 236.523438 248.738281 L 205.890625 266.542969 L 175.050781 248.738281 L 175.664062 248.378906 L 181.175781 251.5625 C 182.085938 252.085938 183.105469 252.347656 184.125 252.347656 Z M 184.085938 103.929688 C 184.507812 103.738281 184.980469 103.757812 185.390625 103.996094 L 270.179688 152.945312 C 270.714844 153.253906 271.160156 153.699219 271.46875 154.234375 C 271.777344 154.765625 271.9375 155.375 271.9375 155.992188 L 271.9375 220.648438 L 261.867188 214.832031 L 261.867188 169.949219 C 261.867188 168.914062 261.59375 167.894531 261.078125 167 C 260.558594 166.105469 259.8125 165.359375 258.917969 164.839844 L 251.292969 160.441406 L 251.292969 149.285156 C 251.292969 148.25 251.019531 147.230469 250.503906 146.335938 C 249.984375 145.441406 249.238281 144.695312 248.34375 144.175781 L 183.253906 106.597656 L 183.253906 105.230469 C 183.253906 104.65625 183.566406 104.171875 184.085938 103.929688 Z M 246.316406 217.167969 C 246.316406 217.054688 246.253906 216.945312 246.15625 216.886719 L 170.800781 173.382812 L 170.800781 171.59375 L 250.804688 217.785156 C 250.855469 217.816406 250.914062 217.828125 250.96875 217.828125 C 251.023438 217.828125 251.082031 217.816406 251.132812 217.785156 C 251.230469 217.726562 251.292969 217.621094 251.292969 217.503906 L 251.292969 163.191406 L 257.726562 166.90625 C 258.261719 167.210938 258.707031 167.65625 259.015625 168.191406 C 259.320312 168.722656 259.484375 169.332031 259.484375 169.949219 L 259.484375 234.605469 L 237.964844 222.179688 L 246.15625 217.449219 C 246.253906 217.390625 246.316406 217.285156 246.316406 217.167969 Z M 246.316406 217.167969 " fill-opacity="1" fill-rule="nonzero"/><path fill="#fff8ea" d="M 185.082031 101.4375 L 189.617188 99.011719 C 190.585938 98.492188 191.734375 98.511719 192.6875 99.0625 L 277.234375 147.875 C 277.9375 148.28125 278.539062 148.84375 278.984375 149.519531 L 273.359375 152.765625 C 273.355469 152.761719 273.351562 152.753906 273.347656 152.75 C 273.234375 152.578125 273.113281 152.414062 272.984375 152.257812 C 272.960938 152.230469 272.941406 152.203125 272.917969 152.179688 C 272.789062 152.027344 272.652344 151.882812 272.507812 151.742188 C 272.484375 151.71875 272.457031 151.695312 272.433594 151.671875 C 272.285156 151.535156 272.132812 151.402344 271.96875 151.28125 C 271.949219 151.265625 271.925781 151.25 271.90625 151.234375 C 271.734375 151.109375 271.554688 150.992188 271.371094 150.882812 L 186.582031 101.929688 C 186.453125 101.855469 186.324219 101.792969 186.191406 101.734375 C 186.148438 101.714844 186.105469 101.703125 186.0625 101.683594 C 185.972656 101.648438 185.878906 101.613281 185.789062 101.585938 C 185.734375 101.570312 185.683594 101.554688 185.632812 101.542969 C 185.546875 101.519531 185.460938 101.5 185.375 101.484375 C 185.320312 101.472656 185.261719 101.464844 185.207031 101.457031 C 185.164062 101.449219 185.125 101.441406 185.082031 101.4375 Z M 158.492188 163.738281 L 158.492188 98.519531 C 158.492188 97.273438 159.199219 96.171875 160.335938 95.648438 C 161.277344 95.214844 162.332031 95.265625 163.230469 95.785156 L 248.019531 144.738281 C 248.816406 145.199219 249.480469 145.863281 249.941406 146.660156 C 250.402344 147.457031 250.644531 148.363281 250.644531 149.285156 L 250.644531 216.941406 Z M 162.046875 161.875 L 238.328125 205.914062 L 246.765625 210.785156 C 246.816406 210.816406 246.871094 210.832031 246.929688 210.832031 C 246.984375 210.832031 247.039062 210.816406 247.089844 210.785156 C 247.191406 210.730469 247.253906 210.621094 247.253906 210.507812 L 247.253906 148.398438 C 247.253906 148.285156 247.191406 148.175781 247.089844 148.117188 L 193.632812 117.253906 C 193.628906 117.253906 193.625 117.25 193.621094 117.25 L 191.21875 115.863281 L 190.007812 115.160156 C 190.003906 115.160156 190.003906 115.160156 190.003906 115.160156 L 162.371094 99.207031 C 162.269531 99.148438 162.148438 99.148438 162.046875 99.207031 C 161.945312 99.265625 161.882812 99.371094 161.882812 99.488281 L 161.882812 161.59375 C 161.882812 161.621094 161.886719 161.652344 161.894531 161.679688 C 161.917969 161.761719 161.972656 161.832031 162.046875 161.875 Z M 96.710938 196.574219 L 153.191406 163.964844 L 245.34375 217.167969 L 186.75 251 C 185.132812 251.933594 183.121094 251.933594 181.5 251 L 96.710938 202.046875 C 95.722656 201.472656 95.132812 200.453125 95.132812 199.308594 C 95.132812 198.167969 95.722656 197.144531 96.710938 196.574219 Z M 172.015625 220.367188 C 172.015625 220.25 171.953125 220.144531 171.855469 220.085938 L 148.21875 206.441406 C 148.121094 206.382812 147.996094 206.382812 147.894531 206.441406 L 130.171875 216.671875 C 130.070312 216.730469 130.007812 216.839844 130.007812 216.953125 C 130.007812 217.070312 130.070312 217.175781 130.171875 217.234375 L 153.804688 230.878906 C 153.855469 230.910156 153.910156 230.921875 153.964844 230.921875 C 154.023438 230.921875 154.078125 230.910156 154.128906 230.878906 L 171.855469 220.648438 C 171.953125 220.589844 172.015625 220.480469 172.015625 220.367188 Z M 127.9375 192.859375 C 127.9375 192.972656 128 193.082031 128.101562 193.140625 L 192.984375 230.597656 C 193.035156 230.628906 193.089844 230.644531 193.144531 230.644531 C 193.203125 230.644531 193.257812 230.628906 193.308594 230.597656 L 217.640625 216.550781 L 225.75 211.871094 C 225.851562 211.8125 225.910156 211.707031 225.910156 211.589844 C 225.910156 211.472656 225.851562 211.367188 225.75 211.308594 L 160.867188 173.847656 C 160.765625 173.789062 160.644531 173.789062 160.542969 173.847656 L 128.101562 192.578125 C 128 192.636719 127.9375 192.742188 127.9375 192.859375 Z M 127.9375 192.859375 " fill-opacity="1" fill-rule="nonzero"/><path fill="#fff8ea" d="M 237.792969 238.5625 L 230.398438 234.296875 L 237.738281 230.027344 L 245.132812 234.296875 Z M 249.714844 240.800781 L 237.84375 247.699219 L 221.253906 238.121094 L 237.730469 228.546875 L 248.492188 234.761719 Z M 237.527344 240.902344 C 237.527344 240.695312 237.40625 240.507812 237.191406 240.382812 L 228.042969 235.101562 C 227.714844 234.910156 227.21875 234.910156 226.890625 235.101562 C 226.734375 235.195312 226.625 235.324219 226.582031 235.46875 C 226.566406 235.519531 226.5625 235.570312 226.5625 235.621094 C 226.5625 235.699219 226.578125 235.773438 226.609375 235.84375 C 226.285156 235.699219 225.839844 235.710938 225.539062 235.886719 C 225.328125 236.007812 225.207031 236.199219 225.207031 236.40625 C 225.207031 236.613281 225.332031 236.804688 225.542969 236.925781 L 229.5625 239.25 C 229.894531 239.4375 230.386719 239.4375 230.714844 239.246094 C 230.925781 239.125 231.046875 238.9375 231.046875 238.726562 C 231.046875 238.652344 231.03125 238.582031 231 238.511719 L 236.042969 241.425781 C 236.207031 241.519531 236.414062 241.566406 236.621094 241.566406 C 236.824219 241.566406 237.03125 241.519531 237.195312 241.421875 C 237.40625 241.300781 237.527344 241.113281 237.527344 240.902344 Z M 246.105469 234.296875 C 246.105469 234.179688 246.042969 234.074219 245.941406 234.015625 L 237.902344 229.375 C 237.800781 229.316406 237.675781 229.316406 237.574219 229.375 L 229.589844 234.015625 C 229.488281 234.074219 229.425781 234.179688 229.425781 234.296875 C 229.425781 234.414062 229.488281 234.519531 229.589844 234.578125 L 237.628906 239.21875 C 237.679688 239.25 237.734375 239.261719 237.792969 239.261719 C 237.847656 239.261719 237.90625 239.246094 237.953125 239.21875 L 245.941406 234.578125 C 246.042969 234.519531 246.105469 234.410156 246.105469 234.296875 Z M 205.699219 244.867188 L 202.726562 246.597656 L 209.496094 250.503906 L 222.46875 242.964844 L 224.492188 241.792969 L 217.722656 237.882812 L 215.375 239.246094 Z M 220.035156 237.210938 L 226.082031 233.695312 L 223.835938 232.398438 C 223.785156 232.367188 223.742188 232.328125 223.714844 232.277344 L 223.042969 231.089844 L 222.789062 230.941406 L 215.984375 234.871094 Z M 118.695312 217.890625 L 120.242188 218.785156 L 122.320312 217.578125 L 120.773438 216.6875 Z M 134.945312 228.617188 C 134.941406 228.617188 134.933594 228.621094 134.925781 228.621094 C 134.832031 228.648438 134.730469 228.683594 134.632812 228.726562 C 134.601562 228.738281 134.574219 228.75 134.546875 228.761719 C 134.433594 228.808594 134.324219 228.859375 134.214844 228.925781 C 134.207031 228.929688 134.203125 228.933594 134.195312 228.9375 C 134.148438 228.964844 134.101562 228.992188 134.058594 229.023438 C 134.042969 229.035156 134.027344 229.046875 134.007812 229.058594 C 133.980469 229.078125 133.953125 229.097656 133.929688 229.117188 C 133.914062 229.128906 133.898438 229.140625 133.882812 229.152344 C 133.863281 229.171875 133.84375 229.1875 133.824219 229.203125 C 133.8125 229.214844 133.800781 229.230469 133.789062 229.242188 C 133.773438 229.253906 133.757812 229.269531 133.746094 229.285156 C 133.734375 229.296875 133.722656 229.308594 133.714844 229.320312 C 133.703125 229.332031 133.691406 229.34375 133.683594 229.355469 C 133.675781 229.367188 133.667969 229.375 133.660156 229.386719 C 133.65625 229.398438 133.648438 229.40625 133.640625 229.417969 C 133.636719 229.425781 133.632812 229.433594 133.628906 229.441406 C 133.625 229.449219 133.621094 229.457031 133.617188 229.464844 C 133.613281 229.472656 133.613281 229.476562 133.609375 229.484375 C 133.609375 229.484375 133.609375 229.488281 133.609375 229.492188 C 133.816406 229.609375 134.546875 229.53125 135.226562 229.136719 C 135.28125 229.101562 135.332031 229.070312 135.378906 229.039062 C 135.394531 229.027344 135.410156 229.015625 135.425781 229.007812 C 135.453125 228.984375 135.484375 228.964844 135.507812 228.945312 C 135.523438 228.933594 135.535156 228.921875 135.550781 228.910156 C 135.570312 228.890625 135.59375 228.875 135.613281 228.859375 C 135.625 228.847656 135.636719 228.835938 135.648438 228.824219 C 135.664062 228.808594 135.679688 228.792969 135.691406 228.777344 C 135.703125 228.765625 135.710938 228.753906 135.722656 228.746094 C 135.734375 228.730469 135.746094 228.71875 135.753906 228.707031 C 135.761719 228.695312 135.769531 228.6875 135.773438 228.679688 C 135.78125 228.664062 135.789062 228.65625 135.796875 228.644531 C 135.800781 228.636719 135.804688 228.628906 135.808594 228.621094 C 135.8125 228.613281 135.816406 228.605469 135.820312 228.59375 C 135.824219 228.589844 135.828125 228.585938 135.828125 228.578125 C 135.828125 228.574219 135.828125 228.574219 135.828125 228.570312 C 135.773438 228.539062 135.675781 228.519531 135.546875 228.519531 C 135.386719 228.519531 135.175781 228.550781 134.945312 228.617188 Z M 130.015625 225.214844 C 129.957031 225.179688 129.859375 225.164062 129.734375 225.164062 C 129.570312 225.164062 129.359375 225.191406 129.132812 225.257812 C 129.125 225.257812 129.117188 225.261719 129.113281 225.261719 C 129.015625 225.292969 128.917969 225.328125 128.816406 225.367188 C 128.785156 225.378906 128.757812 225.390625 128.730469 225.402344 C 128.621094 225.449219 128.507812 225.503906 128.398438 225.566406 C 128.34375 225.601562 128.289062 225.632812 128.242188 225.664062 C 128.226562 225.675781 128.210938 225.6875 128.195312 225.699219 C 128.167969 225.71875 128.140625 225.738281 128.113281 225.757812 C 128.097656 225.769531 128.085938 225.78125 128.070312 225.796875 C 128.050781 225.8125 128.027344 225.828125 128.011719 225.847656 C 127.996094 225.859375 127.984375 225.871094 127.972656 225.882812 C 127.957031 225.898438 127.941406 225.914062 127.929688 225.925781 C 127.917969 225.9375 127.910156 225.949219 127.898438 225.960938 C 127.886719 225.972656 127.878906 225.988281 127.867188 226 C 127.859375 226.007812 127.855469 226.019531 127.847656 226.027344 C 127.839844 226.039062 127.832031 226.050781 127.824219 226.0625 C 127.820312 226.070312 127.816406 226.078125 127.8125 226.082031 C 127.808594 226.09375 127.804688 226.101562 127.800781 226.109375 C 127.796875 226.113281 127.796875 226.121094 127.792969 226.125 C 127.792969 226.128906 127.792969 226.128906 127.792969 226.132812 C 128 226.25 128.730469 226.171875 129.410156 225.777344 C 129.84375 225.527344 129.996094 225.292969 130.015625 225.214844 Z M 136.675781 231.496094 L 140.320312 229.375 L 173.890625 248.757812 L 170.5 250.730469 L 165.863281 250.949219 L 136.347656 233.90625 Z M 144.398438 233.792969 L 144.253906 233.878906 C 143.925781 234.070312 143.738281 234.355469 143.738281 234.65625 C 143.738281 234.964844 143.929688 235.246094 144.257812 235.4375 L 166.300781 248.164062 C 166.375 248.207031 166.453125 248.242188 166.53125 248.273438 C 166.773438 248.367188 167.050781 248.414062 167.328125 248.414062 C 167.695312 248.414062 168.066406 248.332031 168.351562 248.164062 L 168.5 248.078125 C 168.828125 247.890625 169.015625 247.605469 169.015625 247.300781 C 169.011719 246.996094 168.824219 246.710938 168.492188 246.519531 L 146.449219 233.792969 C 145.871094 233.460938 144.972656 233.460938 144.398438 233.792969 Z M 141.167969 233.207031 C 141.167969 233.492188 141.332031 233.75 141.621094 233.917969 C 141.867188 234.058594 142.1875 234.125 142.523438 234.125 C 142.921875 234.125 143.339844 234.027344 143.675781 233.832031 C 144.050781 233.613281 144.265625 233.304688 144.265625 232.976562 C 144.265625 232.695312 144.101562 232.4375 143.8125 232.269531 C 143.339844 232 142.589844 231.992188 142 232.234375 C 141.914062 232.269531 141.832031 232.308594 141.757812 232.351562 C 141.382812 232.570312 141.164062 232.882812 141.167969 233.207031 Z M 138.8125 234.355469 C 138.8125 234.492188 138.871094 234.621094 138.980469 234.722656 C 139.015625 234.757812 139.054688 234.785156 139.101562 234.8125 L 164.832031 249.667969 C 164.898438 249.707031 164.972656 249.734375 165.046875 249.753906 C 165.128906 249.773438 165.214844 249.785156 165.300781 249.785156 C 165.464844 249.785156 165.632812 249.746094 165.765625 249.667969 C 165.78125 249.660156 165.789062 249.652344 165.800781 249.644531 C 165.804688 249.640625 165.8125 249.640625 165.820312 249.636719 C 166 249.53125 166.105469 249.367188 166.105469 249.183594 C 166.105469 249.042969 166.042969 248.914062 165.933594 248.8125 C 165.898438 248.78125 165.859375 248.75 165.816406 248.722656 L 140.082031 233.867188 C 139.8125 233.710938 139.417969 233.710938 139.148438 233.867188 C 139.136719 233.875 139.128906 233.882812 139.117188 233.890625 C 139.109375 233.894531 139.105469 233.894531 139.097656 233.898438 C 138.914062 234.003906 138.8125 234.171875 138.8125 234.355469 Z M 181.886719 258.398438 L 182.734375 257.90625 L 178.433594 255.421875 C 178.332031 255.363281 178.273438 255.253906 178.273438 255.140625 C 178.269531 255.023438 178.332031 254.917969 178.433594 254.859375 L 179.445312 254.269531 L 175.027344 251.71875 L 172.679688 253.082031 Z M 202.09375 266.894531 L 201.933594 267.175781 Z M 210.015625 211.589844 L 217.476562 215.898438 L 224.9375 211.589844 L 217.476562 207.28125 Z M 193.144531 221.328125 L 185.875 225.523438 L 185.683594 225.636719 L 193.144531 229.945312 L 200.605469 225.636719 Z M 157.960938 226.457031 L 148.058594 220.738281 L 143.066406 223.621094 L 142.796875 223.777344 L 153.964844 230.222656 L 159.226562 227.1875 Z M 136.890625 213.542969 L 137.605469 213.957031 L 159.875 226.8125 L 171.042969 220.367188 L 148.058594 207.09375 Z M 142.148438 223.402344 L 147.410156 220.367188 L 136.242188 213.917969 L 130.980469 216.953125 Z M 160.703125 201.847656 L 168.167969 197.542969 L 160.703125 193.234375 L 153.242188 197.542969 Z M 201.90625 206.90625 L 209.367188 211.214844 L 216.828125 206.90625 L 209.367188 202.597656 Z M 185.980469 216.101562 L 185.683594 216.269531 L 193.144531 220.578125 L 200.605469 216.269531 L 193.144531 211.964844 Z M 185.035156 197.917969 L 177.574219 202.222656 L 185.035156 206.53125 L 192.496094 202.222656 Z M 176.925781 183.867188 L 169.464844 188.175781 L 176.925781 192.484375 L 184.386719 188.175781 Z M 185.035156 215.898438 L 192.496094 211.589844 L 185.878906 207.765625 L 185.035156 207.28125 L 177.574219 211.589844 Z M 143.835938 192.859375 L 136.375 188.550781 L 128.910156 192.859375 L 136.375 197.167969 Z M 201.257812 207.28125 L 193.792969 211.589844 L 201.417969 215.992188 C 201.519531 216.046875 201.582031 216.15625 201.582031 216.269531 C 201.582031 216.386719 201.519531 216.492188 201.417969 216.550781 L 193.792969 220.953125 L 201.253906 225.261719 L 209.398438 220.558594 L 216.828125 216.269531 Z M 185.683594 197.542969 L 193.144531 201.847656 L 200.605469 197.542969 L 199.148438 196.699219 L 193.144531 193.234375 Z M 168.816406 179.1875 L 161.351562 183.492188 L 168.816406 187.800781 L 176.277344 183.492188 Z M 161.351562 192.859375 L 168.816406 197.167969 L 176.277344 192.859375 L 168.816406 188.550781 Z M 185.683594 206.90625 L 193.144531 211.214844 L 200.605469 206.90625 L 193.144531 202.597656 Z M 176.925781 211.214844 L 184.386719 206.90625 L 176.925781 202.597656 L 169.464844 206.90625 Z M 160.703125 183.117188 L 168.164062 178.8125 L 160.703125 174.503906 L 153.242188 178.8125 Z M 168.816406 197.917969 L 161.355469 202.222656 L 168.816406 206.53125 L 176.277344 202.222656 Z M 185.035156 188.550781 L 177.574219 192.859375 L 185.035156 197.167969 L 192.496094 192.859375 Z M 169.464844 197.542969 L 176.925781 201.847656 L 184.386719 197.542969 L 176.925781 193.234375 Z M 151.945312 188.175781 L 149.1875 186.582031 L 144.484375 183.867188 L 137.023438 188.175781 L 144.484375 192.484375 Z M 152.59375 197.167969 L 160.054688 192.859375 L 152.59375 188.550781 L 145.132812 192.859375 Z M 185.035156 225.261719 L 192.496094 220.953125 L 144.484375 193.234375 L 137.023438 197.542969 Z M 160.703125 192.484375 L 168.167969 188.175781 L 152.59375 179.1875 L 145.132812 183.492188 Z M 201.257812 197.917969 L 193.796875 202.222656 L 201.257812 206.53125 L 208.71875 202.222656 Z M 182.734375 111.710938 L 175.488281 107.527344 L 198.085938 181.929688 L 205.332031 186.113281 Z M 216.203125 192.394531 L 228.105469 199.265625 L 205.507812 124.859375 L 193.609375 117.988281 Z M 189.679688 115.722656 L 186.042969 113.625 L 208.640625 188.027344 L 212.578125 190.300781 L 189.980469 115.894531 L 189.695312 115.730469 C 189.691406 115.730469 189.6875 115.726562 189.679688 115.722656 Z M 189.679688 115.722656 " fill-opacity="1" fill-rule="nonzero"/><g clip-path="url(#d1b4e65ff7)"><path fill="#186b80" d="M 250.398438 240.898438 L 249.097656 234.488281 C 249.078125 234.398438 249.023438 234.320312 248.941406 234.273438 L 237.894531 227.890625 C 237.792969 227.835938 237.667969 227.835938 237.566406 227.894531 L 220.445312 237.84375 C 220.347656 237.902344 220.285156 238.007812 220.285156 238.125 C 220.285156 238.238281 220.347656 238.347656 220.445312 238.40625 L 237.679688 248.355469 C 237.730469 248.382812 237.789062 248.398438 237.84375 248.398438 C 237.898438 248.398438 237.957031 248.382812 238.007812 248.355469 L 250.242188 241.242188 C 250.363281 241.175781 250.425781 241.035156 250.398438 240.898438 Z M 221.253906 238.121094 L 237.730469 228.546875 L 248.492188 234.761719 L 249.714844 240.800781 L 237.84375 247.699219 Z M 237.191406 240.382812 L 228.042969 235.101562 C 227.714844 234.910156 227.21875 234.910156 226.890625 235.101562 C 226.734375 235.195312 226.625 235.324219 226.582031 235.46875 C 226.566406 235.519531 226.5625 235.570312 226.5625 235.621094 C 226.5625 235.699219 226.578125 235.773438 226.609375 235.84375 C 226.285156 235.699219 225.839844 235.710938 225.539062 235.886719 C 225.328125 236.007812 225.207031 236.199219 225.207031 236.40625 C 225.207031 236.613281 225.332031 236.804688 225.542969 236.925781 L 229.5625 239.25 C 229.894531 239.4375 230.386719 239.4375 230.714844 239.246094 C 230.925781 239.125 231.046875 238.9375 231.046875 238.726562 C 231.046875 238.652344 231.03125 238.582031 231 238.511719 L 236.042969 241.425781 C 236.207031 241.519531 236.414062 241.566406 236.621094 241.566406 C 236.824219 241.566406 237.03125 241.519531 237.195312 241.421875 C 237.40625 241.300781 237.527344 241.113281 237.527344 240.902344 C 237.527344 240.695312 237.40625 240.507812 237.191406 240.382812 Z M 226.0625 236.394531 C 226.117188 236.390625 226.171875 236.394531 226.226562 236.40625 C 226.28125 236.414062 226.332031 236.425781 226.367188 236.449219 L 226.421875 236.480469 L 230.300781 238.722656 C 230.28125 238.726562 230.261719 238.730469 230.242188 238.734375 C 230.226562 238.734375 230.214844 238.738281 230.199219 238.742188 C 230.175781 238.742188 230.152344 238.742188 230.128906 238.742188 C 230.117188 238.742188 230.101562 238.742188 230.085938 238.742188 C 230.0625 238.738281 230.042969 238.734375 230.019531 238.730469 C 230.007812 238.726562 229.992188 238.726562 229.980469 238.722656 C 229.953125 238.714844 229.929688 238.707031 229.910156 238.695312 C 229.902344 238.691406 229.894531 238.691406 229.890625 238.6875 L 225.957031 236.414062 C 225.988281 236.402344 226.023438 236.398438 226.0625 236.394531 Z M 236.566406 240.914062 C 236.535156 240.914062 236.503906 240.90625 236.476562 240.902344 C 236.472656 240.898438 236.464844 240.898438 236.457031 240.898438 C 236.425781 240.890625 236.394531 240.878906 236.367188 240.863281 L 227.308594 235.628906 C 227.339844 235.617188 227.375 235.613281 227.414062 235.609375 C 227.523438 235.601562 227.644531 235.621094 227.71875 235.664062 L 236.78125 240.898438 C 236.761719 240.902344 236.742188 240.90625 236.722656 240.910156 C 236.707031 240.910156 236.691406 240.914062 236.675781 240.914062 C 236.652344 240.917969 236.621094 240.917969 236.59375 240.914062 C 236.585938 240.914062 236.574219 240.917969 236.566406 240.914062 Z M 245.941406 234.015625 L 237.902344 229.375 C 237.800781 229.316406 237.675781 229.316406 237.574219 229.375 L 229.589844 234.015625 C 229.488281 234.074219 229.425781 234.179688 229.425781 234.296875 C 229.425781 234.414062 229.488281 234.519531 229.589844 234.578125 L 237.628906 239.21875 C 237.679688 239.25 237.734375 239.261719 237.792969 239.261719 C 237.847656 239.261719 237.90625 239.246094 237.953125 239.21875 L 245.941406 234.578125 C 246.042969 234.519531 246.105469 234.410156 246.105469 234.296875 C 246.101562 234.179688 246.042969 234.074219 245.941406 234.015625 Z M 237.738281 230.027344 L 245.132812 234.296875 L 237.792969 238.5625 L 230.398438 234.296875 Z M 139.617188 228.496094 C 139.617188 228.195312 139.429688 227.917969 139.105469 227.730469 L 130.816406 222.941406 C 130.25 222.617188 129.371094 222.617188 128.8125 222.945312 L 124.511719 225.441406 C 124.191406 225.628906 124.007812 225.90625 124.007812 226.207031 C 124.007812 226.507812 124.195312 226.789062 124.519531 226.976562 L 132.808594 231.761719 C 133.089844 231.921875 133.449219 232.003906 133.8125 232.003906 C 134.171875 232.003906 134.53125 231.921875 134.8125 231.761719 L 139.113281 229.261719 C 139.433594 229.074219 139.617188 228.796875 139.617188 228.496094 Z M 138.785156 228.703125 L 134.488281 231.199219 C 134.128906 231.410156 133.496094 231.410156 133.132812 231.199219 L 124.84375 226.414062 C 124.703125 226.335938 124.65625 226.253906 124.65625 226.207031 C 124.65625 226.160156 124.703125 226.082031 124.839844 226.003906 L 129.136719 223.503906 C 129.316406 223.402344 129.5625 223.347656 129.8125 223.347656 C 130.0625 223.347656 130.308594 223.402344 130.492188 223.503906 L 138.78125 228.292969 C 138.917969 228.371094 138.96875 228.453125 138.96875 228.5 C 138.96875 228.542969 138.921875 228.625 138.785156 228.703125 Z M 136.15625 228.011719 C 136.019531 227.933594 135.855469 227.890625 135.671875 227.875 C 135.121094 227.835938 134.410156 228.0625 133.886719 228.363281 C 133.441406 228.621094 133.140625 228.921875 133.019531 229.21875 C 132.976562 229.316406 132.957031 229.414062 132.957031 229.507812 C 132.957031 229.734375 133.074219 229.933594 133.285156 230.050781 C 133.449219 230.148438 133.660156 230.191406 133.894531 230.191406 C 134.425781 230.191406 135.066406 229.976562 135.550781 229.699219 C 135.699219 229.609375 135.832031 229.519531 135.945312 229.425781 C 136.292969 229.148438 136.484375 228.839844 136.484375 228.554688 C 136.484375 228.496094 136.476562 228.441406 136.460938 228.390625 C 136.417969 228.234375 136.3125 228.101562 136.15625 228.011719 Z M 135.828125 228.578125 C 135.828125 228.585938 135.824219 228.589844 135.820312 228.597656 C 135.820312 228.605469 135.816406 228.613281 135.808594 228.621094 C 135.804688 228.628906 135.800781 228.636719 135.796875 228.644531 C 135.789062 228.65625 135.78125 228.667969 135.773438 228.679688 C 135.769531 228.6875 135.761719 228.695312 135.753906 228.707031 C 135.746094 228.71875 135.734375 228.730469 135.722656 228.746094 C 135.714844 228.757812 135.703125 228.765625 135.695312 228.777344 C 135.679688 228.792969 135.664062 228.808594 135.648438 228.824219 C 135.636719 228.835938 135.625 228.847656 135.613281 228.859375 C 135.59375 228.875 135.574219 228.894531 135.550781 228.910156 C 135.539062 228.921875 135.523438 228.933594 135.507812 228.945312 C 135.484375 228.964844 135.453125 228.988281 135.425781 229.007812 C 135.410156 229.019531 135.398438 229.027344 135.378906 229.039062 C 135.332031 229.070312 135.28125 229.105469 135.226562 229.136719 C 134.546875 229.53125 133.816406 229.609375 133.609375 229.492188 C 133.609375 229.488281 133.609375 229.484375 133.609375 229.484375 C 133.613281 229.476562 133.613281 229.472656 133.617188 229.464844 C 133.621094 229.460938 133.625 229.449219 133.628906 229.441406 C 133.632812 229.433594 133.636719 229.425781 133.640625 229.417969 C 133.648438 229.410156 133.65625 229.398438 133.664062 229.386719 C 133.667969 229.378906 133.675781 229.367188 133.683594 229.355469 C 133.691406 229.34375 133.703125 229.332031 133.714844 229.320312 C 133.726562 229.308594 133.734375 229.296875 133.746094 229.285156 C 133.757812 229.269531 133.773438 229.257812 133.789062 229.242188 C 133.800781 229.230469 133.8125 229.21875 133.828125 229.203125 C 133.84375 229.1875 133.863281 229.171875 133.886719 229.15625 C 133.898438 229.140625 133.914062 229.128906 133.929688 229.117188 C 133.957031 229.097656 133.984375 229.078125 134.011719 229.058594 C 134.027344 229.046875 134.042969 229.035156 134.058594 229.023438 C 134.101562 228.996094 134.148438 228.964844 134.195312 228.9375 C 134.203125 228.933594 134.207031 228.929688 134.214844 228.925781 C 134.324219 228.863281 134.4375 228.808594 134.546875 228.761719 C 134.574219 228.75 134.601562 228.738281 134.632812 228.726562 C 134.730469 228.683594 134.832031 228.648438 134.925781 228.621094 C 134.933594 228.621094 134.941406 228.617188 134.949219 228.617188 C 135.175781 228.550781 135.386719 228.519531 135.550781 228.519531 C 135.675781 228.519531 135.773438 228.539062 135.832031 228.570312 C 135.828125 228.574219 135.828125 228.578125 135.828125 228.578125 Z M 130.339844 224.652344 C 129.800781 224.339844 128.769531 224.601562 128.074219 225.007812 C 127.480469 225.351562 127.140625 225.769531 127.140625 226.152344 C 127.140625 226.375 127.261719 226.574219 127.46875 226.695312 C 127.632812 226.789062 127.847656 226.832031 128.082031 226.832031 C 128.609375 226.832031 129.253906 226.621094 129.734375 226.339844 C 130.328125 225.996094 130.667969 225.578125 130.667969 225.195312 C 130.667969 224.96875 130.546875 224.773438 130.339844 224.652344 Z M 127.792969 226.132812 C 127.792969 226.132812 127.792969 226.128906 127.792969 226.125 C 127.796875 226.121094 127.796875 226.117188 127.800781 226.109375 C 127.804688 226.101562 127.808594 226.09375 127.8125 226.085938 C 127.816406 226.078125 127.820312 226.070312 127.824219 226.0625 C 127.832031 226.050781 127.839844 226.039062 127.847656 226.027344 C 127.855469 226.019531 127.859375 226.011719 127.867188 226 C 127.878906 225.988281 127.886719 225.972656 127.898438 225.960938 C 127.910156 225.949219 127.917969 225.9375 127.929688 225.925781 C 127.941406 225.914062 127.957031 225.898438 127.972656 225.882812 C 127.984375 225.871094 127.996094 225.859375 128.011719 225.847656 C 128.027344 225.832031 128.050781 225.8125 128.070312 225.796875 C 128.085938 225.78125 128.097656 225.769531 128.113281 225.757812 C 128.140625 225.738281 128.167969 225.71875 128.195312 225.699219 C 128.210938 225.6875 128.226562 225.675781 128.242188 225.664062 C 128.292969 225.632812 128.34375 225.601562 128.398438 225.566406 C 128.507812 225.503906 128.621094 225.449219 128.730469 225.402344 C 128.757812 225.390625 128.785156 225.378906 128.816406 225.367188 C 128.917969 225.328125 129.015625 225.292969 129.113281 225.265625 C 129.117188 225.261719 129.125 225.261719 129.132812 225.257812 C 129.359375 225.191406 129.570312 225.164062 129.734375 225.164062 C 129.859375 225.164062 129.957031 225.179688 130.015625 225.214844 C 129.996094 225.292969 129.84375 225.527344 129.410156 225.78125 C 128.730469 226.171875 128 226.25 127.792969 226.132812 Z M 141.621094 233.917969 C 141.867188 234.058594 142.1875 234.125 142.523438 234.125 C 142.921875 234.125 143.339844 234.027344 143.675781 233.832031 C 144.050781 233.613281 144.265625 233.304688 144.265625 232.976562 C 144.265625 232.695312 144.101562 232.4375 143.8125 232.269531 C 143.339844 232 142.589844 231.992188 142 232.234375 C 141.914062 232.269531 141.832031 232.308594 141.757812 232.351562 C 141.378906 232.570312 141.164062 232.882812 141.164062 233.207031 C 141.167969 233.492188 141.332031 233.75 141.621094 233.917969 Z M 142.082031 232.914062 C 142.316406 232.777344 142.628906 232.707031 142.917969 232.707031 C 143.136719 232.707031 143.339844 232.75 143.488281 232.832031 C 143.570312 232.878906 143.617188 232.933594 143.617188 232.980469 C 143.617188 233.046875 143.535156 233.164062 143.351562 233.273438 C 142.941406 233.511719 142.285156 233.550781 141.945312 233.355469 C 141.90625 233.332031 141.875 233.304688 141.851562 233.28125 C 141.828125 233.253906 141.816406 233.230469 141.816406 233.207031 C 141.816406 233.195312 141.820312 233.183594 141.824219 233.171875 C 141.832031 233.144531 141.847656 233.109375 141.878906 233.074219 C 141.878906 233.074219 141.882812 233.074219 141.882812 233.074219 C 141.925781 233.023438 141.992188 232.96875 142.082031 232.914062 Z M 143.738281 234.65625 C 143.738281 234.964844 143.929688 235.246094 144.257812 235.4375 L 166.300781 248.164062 C 166.375 248.207031 166.453125 248.242188 166.53125 248.273438 C 166.773438 248.367188 167.050781 248.414062 167.328125 248.414062 C 167.695312 248.414062 168.066406 248.332031 168.351562 248.164062 L 168.5 248.078125 C 168.828125 247.890625 169.015625 247.605469 169.015625 247.300781 C 169.011719 246.996094 168.824219 246.710938 168.492188 246.519531 L 146.449219 233.792969 C 145.871094 233.460938 144.972656 233.460938 144.398438 233.792969 L 144.253906 233.878906 C 143.925781 234.070312 143.738281 234.351562 143.738281 234.65625 Z M 144.578125 234.441406 L 144.726562 234.355469 C 144.910156 234.246094 145.167969 234.191406 145.425781 234.191406 C 145.679688 234.191406 145.9375 234.246094 146.125 234.355469 L 168.167969 247.082031 C 168.199219 247.097656 168.226562 247.117188 168.25 247.136719 C 168.320312 247.191406 168.367188 247.253906 168.367188 247.300781 C 168.367188 247.351562 168.316406 247.4375 168.171875 247.519531 L 168.027344 247.605469 C 167.980469 247.632812 167.929688 247.65625 167.875 247.675781 C 167.710938 247.734375 167.519531 247.765625 167.328125 247.765625 C 167.070312 247.765625 166.8125 247.710938 166.628906 247.605469 L 144.585938 234.878906 C 144.464844 234.808594 144.386719 234.722656 144.386719 234.65625 C 144.386719 234.605469 144.4375 234.523438 144.578125 234.441406 Z M 138.980469 234.722656 C 139.015625 234.757812 139.054688 234.785156 139.101562 234.8125 L 164.832031 249.667969 C 164.898438 249.707031 164.972656 249.734375 165.046875 249.753906 C 165.128906 249.773438 165.214844 249.785156 165.300781 249.785156 C 165.464844 249.785156 165.632812 249.746094 165.765625 249.667969 C 165.78125 249.660156 165.789062 249.652344 165.800781 249.644531 C 165.804688 249.640625 165.8125 249.640625 165.820312 249.636719 C 166 249.53125 166.105469 249.367188 166.105469 249.183594 C 166.105469 249.042969 166.042969 248.914062 165.933594 248.8125 C 165.898438 248.78125 165.859375 248.75 165.816406 248.722656 L 140.082031 233.867188 C 139.8125 233.710938 139.417969 233.710938 139.148438 233.867188 C 139.136719 233.875 139.128906 233.882812 139.117188 233.890625 C 139.109375 233.894531 139.105469 233.894531 139.097656 233.898438 C 138.917969 234.003906 138.8125 234.167969 138.8125 234.355469 C 138.8125 234.492188 138.871094 234.621094 138.980469 234.722656 Z M 165.15625 249.105469 L 139.703125 234.410156 C 139.726562 234.414062 139.746094 234.421875 139.757812 234.429688 L 165.210938 249.125 C 165.191406 249.121094 165.171875 249.113281 165.15625 249.105469 Z M 165.496094 249.289062 C 165.492188 249.289062 165.492188 249.285156 165.492188 249.285156 L 165.652344 249.003906 Z M 203.316406 266.277344 L 175.167969 250.027344 C 175.066406 249.96875 174.945312 249.96875 174.84375 250.027344 L 169.964844 252.863281 C 169.863281 252.921875 169.800781 253.027344 169.800781 253.144531 C 169.800781 253.257812 169.863281 253.367188 169.964844 253.425781 L 200.058594 270.800781 C 200.109375 270.828125 200.164062 270.84375 200.222656 270.84375 C 200.277344 270.84375 200.335938 270.828125 200.386719 270.800781 L 203.328125 269.089844 C 203.429688 269.03125 203.492188 268.921875 203.488281 268.808594 L 203.476562 266.558594 C 203.476562 266.441406 203.414062 266.335938 203.316406 266.277344 Z M 170.773438 253.144531 L 175.007812 250.683594 L 202.828125 266.746094 L 202.839844 268.621094 L 200.222656 270.144531 Z M 183.546875 257.621094 L 179.242188 255.136719 L 180.257812 254.550781 C 180.355469 254.492188 180.417969 254.382812 180.417969 254.269531 C 180.417969 254.183594 180.382812 254.101562 180.324219 254.039062 C 180.304688 254.019531 180.28125 254.003906 180.257812 253.988281 L 175.1875 251.0625 C 175.089844 251.003906 174.964844 251.003906 174.863281 251.0625 L 171.867188 252.804688 C 171.769531 252.863281 171.707031 252.96875 171.707031 253.085938 C 171.707031 253.199219 171.769531 253.308594 171.867188 253.363281 L 181.722656 259.054688 C 181.773438 259.082031 181.832031 259.097656 181.886719 259.097656 C 181.941406 259.097656 182 259.082031 182.050781 259.054688 L 183.546875 258.183594 C 183.648438 258.125 183.707031 258.019531 183.707031 257.902344 C 183.707031 257.789062 183.644531 257.679688 183.546875 257.621094 Z M 179.445312 254.269531 L 178.433594 254.859375 C 178.332031 254.917969 178.273438 255.023438 178.273438 255.140625 C 178.273438 255.253906 178.332031 255.363281 178.433594 255.421875 L 182.738281 257.90625 L 181.886719 258.398438 L 172.679688 253.082031 L 175.027344 251.71875 Z M 202.257812 266.613281 L 189.433594 259.207031 C 189.324219 259.144531 189.191406 259.113281 189.058594 259.109375 C 189.046875 259.109375 189.035156 259.105469 189.023438 259.105469 C 188.996094 259.105469 188.972656 259.113281 188.945312 259.113281 C 188.898438 259.117188 188.851562 259.121094 188.808594 259.132812 C 188.738281 259.148438 188.671875 259.175781 188.613281 259.207031 C 188.453125 259.300781 188.363281 259.449219 188.355469 259.609375 C 188.355469 259.617188 188.351562 259.625 188.351562 259.632812 C 188.351562 259.667969 188.355469 259.699219 188.363281 259.730469 C 188.367188 259.738281 188.367188 259.75 188.367188 259.757812 C 188.390625 259.828125 188.429688 259.890625 188.480469 259.945312 C 188.519531 259.988281 188.5625 260.023438 188.617188 260.054688 L 201.441406 267.460938 C 201.558594 267.527344 201.707031 267.5625 201.851562 267.5625 C 201.996094 267.5625 202.140625 267.527344 202.261719 267.460938 C 202.429688 267.363281 202.523438 267.207031 202.523438 267.035156 C 202.523438 266.863281 202.425781 266.710938 202.257812 266.613281 Z M 201.933594 267.175781 L 202.09375 266.894531 Z M 279.71875 149.472656 C 279.71875 149.472656 279.71875 149.46875 279.71875 149.472656 C 279.199219 148.574219 278.453125 147.828125 277.558594 147.3125 L 193.011719 98.5 C 191.863281 97.835938 190.480469 97.8125 189.3125 98.4375 L 183.074219 101.773438 C 183.074219 101.773438 183.074219 101.777344 183.070312 101.777344 C 181.714844 102.410156 180.875 103.726562 180.871094 105.222656 L 163.554688 95.222656 C 162.46875 94.597656 161.199219 94.539062 160.066406 95.058594 C 158.695312 95.6875 157.84375 97.015625 157.84375 98.519531 L 157.84375 163.925781 C 157.84375 164.042969 157.90625 164.148438 158.003906 164.207031 L 168.417969 170.21875 L 168.417969 172.003906 L 153.355469 163.308594 C 153.253906 163.25 153.128906 163.25 153.03125 163.308594 L 96.386719 196.011719 C 95.195312 196.699219 94.484375 197.933594 94.484375 199.308594 C 94.484375 200.6875 95.195312 201.917969 96.386719 202.605469 L 116.636719 214.296875 L 111.9375 217.011719 C 110.746094 217.699219 110.03125 218.933594 110.03125 220.308594 L 110.03125 227.453125 C 110.03125 228.808594 110.761719 230.074219 111.9375 230.75 L 196.714844 279.699219 C 197.625 280.222656 198.644531 280.484375 199.664062 280.484375 C 200.6875 280.484375 201.714844 280.21875 202.628906 279.6875 L 258.933594 246.921875 C 260.742188 245.871094 261.867188 243.917969 261.867188 241.824219 L 261.867188 217.582031 L 273.832031 224.492188 C 273.882812 224.523438 273.9375 224.535156 273.996094 224.535156 C 274.050781 224.535156 274.109375 224.523438 274.15625 224.492188 L 277.558594 222.53125 C 279.378906 221.480469 280.507812 219.523438 280.507812 217.421875 L 280.507812 152.417969 C 280.507812 151.386719 280.234375 150.367188 279.71875 149.472656 Z M 153.191406 163.964844 L 245.34375 217.167969 L 186.75 251 C 185.132812 251.933594 183.121094 251.933594 181.5 251 L 96.710938 202.046875 C 95.722656 201.472656 95.132812 200.453125 95.132812 199.308594 C 95.132812 198.167969 95.722656 197.144531 96.710938 196.574219 Z M 158.492188 98.519531 C 158.492188 97.273438 159.199219 96.171875 160.335938 95.648438 C 161.277344 95.214844 162.332031 95.265625 163.230469 95.785156 L 248.019531 144.738281 C 248.816406 145.199219 249.480469 145.863281 249.941406 146.660156 C 250.402344 147.457031 250.644531 148.363281 250.644531 149.285156 L 250.644531 216.941406 L 158.492188 163.738281 Z M 201.433594 270.5 C 200.363281 271.113281 198.984375 271.113281 197.917969 270.5 L 113.128906 221.542969 C 112.484375 221.171875 112.414062 220.558594 112.414062 220.308594 C 112.414062 220.0625 112.484375 219.445312 113.128906 219.074219 L 119.019531 215.675781 L 119.574219 215.996094 L 112.839844 219.910156 C 112.738281 219.96875 112.675781 220.074219 112.675781 220.1875 C 112.675781 220.304688 112.738281 220.414062 112.839844 220.46875 L 120.597656 224.949219 C 120.644531 224.976562 120.703125 224.992188 120.757812 224.992188 C 120.765625 224.992188 120.769531 224.992188 120.773438 224.992188 L 125.519531 224.75 C 125.574219 224.746094 125.621094 224.734375 125.667969 224.707031 L 130.144531 222.105469 C 130.144531 222.105469 130.148438 222.101562 130.148438 222.101562 L 175.019531 248.003906 L 174.453125 248.335938 L 140.480469 228.71875 C 140.378906 228.664062 140.257812 228.664062 140.15625 228.71875 L 136.210938 231.011719 C 136.125 231.0625 136.066406 231.152344 136.050781 231.25 L 135.675781 234.035156 C 135.65625 234.167969 135.71875 234.296875 135.832031 234.359375 L 165.621094 251.558594 C 165.671875 251.585938 165.726562 251.601562 165.78125 251.601562 C 165.789062 251.601562 165.792969 251.601562 165.796875 251.601562 L 170.609375 251.375 C 170.660156 251.371094 170.710938 251.355469 170.757812 251.328125 L 174.488281 249.160156 L 205.726562 267.199219 C 205.777344 267.226562 205.832031 267.242188 205.890625 267.242188 C 205.945312 267.242188 206.003906 267.226562 206.050781 267.195312 L 237.335938 249.019531 C 237.433594 248.960938 237.496094 248.851562 237.496094 248.738281 C 237.496094 248.621094 237.433594 248.515625 237.332031 248.457031 L 225.300781 241.507812 L 217.882812 237.226562 L 214.890625 235.5 L 215.332031 235.246094 L 219.871094 237.863281 C 219.921875 237.894531 219.976562 237.910156 220.035156 237.910156 C 220.089844 237.910156 220.144531 237.894531 220.195312 237.863281 L 226.890625 233.972656 C 226.992188 233.914062 227.054688 233.808594 227.054688 233.691406 C 227.050781 233.578125 226.992188 233.46875 226.890625 233.414062 L 224.234375 231.878906 L 223.5625 230.691406 C 223.535156 230.644531 223.492188 230.601562 223.445312 230.570312 L 223.4375 230.566406 L 223.722656 230.402344 L 227.875 232.796875 C 227.925781 232.828125 227.980469 232.84375 228.035156 232.84375 C 228.09375 232.84375 228.148438 232.828125 228.199219 232.796875 L 234.894531 228.90625 C 234.996094 228.847656 235.058594 228.742188 235.058594 228.625 C 235.058594 228.511719 234.996094 228.402344 234.894531 228.347656 L 232.238281 226.8125 L 231.671875 225.8125 L 233.847656 224.554688 L 257.425781 238.167969 Z M 125.410156 224.105469 L 120.839844 224.339844 L 113.648438 220.1875 L 117.734375 217.8125 C 117.726562 217.839844 117.722656 217.867188 117.722656 217.894531 C 117.722656 218.007812 117.785156 218.117188 117.886719 218.175781 L 120.082031 219.441406 C 120.132812 219.472656 120.1875 219.484375 120.246094 219.484375 C 120.300781 219.484375 120.355469 219.472656 120.40625 219.441406 L 122.96875 217.953125 L 129.503906 221.726562 Z M 120.242188 218.785156 L 118.695312 217.890625 L 120.773438 216.683594 L 122.320312 217.578125 Z M 214.242188 235.875 L 217.074219 237.507812 L 215.175781 238.609375 C 213.882812 238.199219 212.53125 237.886719 211.15625 237.65625 Z M 173.890625 248.757812 L 170.5 250.730469 L 165.863281 250.949219 L 136.347656 233.90625 L 136.675781 231.492188 L 140.320312 229.375 Z M 224.492188 241.792969 L 222.46875 242.964844 L 209.496094 250.503906 L 202.726562 246.597656 L 205.699219 244.867188 L 215.375 239.246094 L 217.722656 237.882812 Z M 208.664062 250.921875 C 208.609375 250.945312 208.554688 250.96875 208.5 250.988281 C 208.417969 251.019531 208.335938 251.046875 208.253906 251.070312 C 208.199219 251.089844 208.144531 251.109375 208.089844 251.125 C 208 251.152344 207.90625 251.175781 207.816406 251.199219 C 207.765625 251.210938 207.714844 251.226562 207.664062 251.238281 C 207.539062 251.265625 207.417969 251.292969 207.292969 251.3125 C 207.269531 251.316406 207.246094 251.324219 207.222656 251.328125 C 207.074219 251.351562 206.925781 251.375 206.777344 251.390625 C 206.726562 251.394531 206.679688 251.398438 206.628906 251.402344 C 206.527344 251.414062 206.421875 251.421875 206.320312 251.429688 C 206.257812 251.433594 206.199219 251.433594 206.140625 251.4375 C 206.046875 251.441406 205.953125 251.445312 205.859375 251.445312 C 205.792969 251.445312 205.730469 251.441406 205.667969 251.441406 C 205.578125 251.441406 205.488281 251.4375 205.398438 251.433594 C 205.332031 251.429688 205.265625 251.425781 205.199219 251.421875 C 205.113281 251.414062 205.027344 251.410156 204.9375 251.398438 C 204.871094 251.394531 204.808594 251.386719 204.742188 251.378906 C 204.65625 251.367188 204.570312 251.355469 204.484375 251.339844 C 204.421875 251.332031 204.355469 251.320312 204.292969 251.308594 C 204.207031 251.292969 204.121094 251.277344 204.039062 251.257812 C 203.976562 251.246094 203.914062 251.230469 203.851562 251.214844 C 203.769531 251.195312 203.683594 251.171875 203.601562 251.148438 C 203.542969 251.132812 203.484375 251.117188 203.425781 251.097656 C 203.34375 251.070312 203.261719 251.042969 203.175781 251.011719 C 203.125 250.992188 203.070312 250.976562 203.019531 250.957031 C 202.929688 250.921875 202.84375 250.882812 202.757812 250.84375 C 202.714844 250.824219 202.671875 250.808594 202.628906 250.789062 C 202.503906 250.730469 202.382812 250.667969 202.265625 250.597656 C 201.375 250.085938 200.882812 249.421875 200.882812 248.730469 C 200.882812 248.648438 200.890625 248.566406 200.90625 248.484375 C 200.910156 248.453125 200.917969 248.425781 200.925781 248.398438 C 200.9375 248.347656 200.949219 248.292969 200.96875 248.238281 C 200.980469 248.207031 200.996094 248.175781 201.007812 248.140625 C 201.027344 248.09375 201.046875 248.046875 201.070312 248 C 201.089844 247.964844 201.109375 247.933594 201.128906 247.898438 C 201.15625 247.855469 201.183594 247.808594 201.214844 247.765625 C 201.238281 247.734375 201.265625 247.699219 201.292969 247.667969 C 201.324219 247.625 201.359375 247.582031 201.398438 247.542969 C 201.425781 247.507812 201.460938 247.476562 201.492188 247.445312 C 201.53125 247.402344 201.574219 247.363281 201.617188 247.324219 C 201.652344 247.292969 201.691406 247.261719 201.730469 247.230469 C 201.777344 247.191406 201.824219 247.15625 201.875 247.117188 C 201.917969 247.089844 201.957031 247.058594 202.003906 247.03125 C 202.03125 247.011719 202.058594 246.992188 202.085938 246.976562 L 208.8125 250.859375 C 208.765625 250.878906 208.714844 250.902344 208.664062 250.921875 Z M 210.535156 238.210938 C 210.667969 238.230469 210.800781 238.253906 210.933594 238.273438 C 211.320312 238.335938 211.703125 238.40625 212.082031 238.484375 C 212.144531 238.496094 212.207031 238.503906 212.269531 238.519531 C 212.707031 238.609375 213.136719 238.714844 213.566406 238.824219 C 213.683594 238.855469 213.796875 238.886719 213.914062 238.917969 C 214.078125 238.964844 214.238281 239.015625 214.398438 239.0625 L 201.917969 246.316406 C 200.832031 246.945312 200.234375 247.804688 200.234375 248.730469 C 200.238281 249.664062 200.84375 250.527344 201.941406 251.160156 C 204.074219 252.390625 207.539062 252.390625 209.660156 251.160156 L 222.570312 243.65625 C 222.597656 243.683594 222.625 243.714844 222.652344 243.742188 C 222.703125 243.800781 222.753906 243.855469 222.804688 243.914062 C 222.859375 243.976562 222.910156 244.035156 222.960938 244.097656 C 223.007812 244.152344 223.058594 244.210938 223.101562 244.269531 C 223.152344 244.332031 223.199219 244.394531 223.246094 244.453125 C 223.292969 244.511719 223.335938 244.570312 223.378906 244.628906 C 223.421875 244.691406 223.464844 244.753906 223.507812 244.820312 C 223.550781 244.878906 223.589844 244.9375 223.628906 244.996094 C 223.667969 245.058594 223.707031 245.121094 223.746094 245.1875 C 223.785156 245.246094 223.820312 245.304688 223.855469 245.363281 C 223.890625 245.429688 223.925781 245.492188 223.960938 245.558594 C 223.996094 245.617188 224.027344 245.679688 224.058594 245.738281 C 224.089844 245.804688 224.121094 245.867188 224.152344 245.933594 C 224.183594 245.996094 224.210938 246.054688 224.238281 246.117188 C 224.265625 246.179688 224.292969 246.246094 224.320312 246.3125 C 224.34375 246.375 224.371094 246.433594 224.390625 246.496094 C 224.417969 246.5625 224.441406 246.628906 224.464844 246.699219 C 224.484375 246.757812 224.503906 246.816406 224.523438 246.878906 C 224.542969 246.945312 224.5625 247.015625 224.582031 247.085938 C 224.597656 247.144531 224.617188 247.203125 224.628906 247.265625 C 224.648438 247.332031 224.660156 247.402344 224.675781 247.472656 C 224.6875 247.535156 224.703125 247.59375 224.714844 247.652344 C 224.726562 247.722656 224.734375 247.792969 224.746094 247.867188 C 224.753906 247.925781 224.765625 247.984375 224.769531 248.042969 C 224.78125 248.117188 224.785156 248.191406 224.789062 248.265625 C 224.796875 248.320312 224.800781 248.378906 224.804688 248.433594 C 224.808594 248.511719 224.808594 248.589844 224.808594 248.667969 C 224.8125 248.722656 224.8125 248.773438 224.8125 248.828125 C 224.8125 248.914062 224.808594 249 224.804688 249.085938 C 224.800781 249.132812 224.800781 249.175781 224.796875 249.222656 C 224.789062 249.355469 224.773438 249.484375 224.757812 249.617188 C 224.410156 252.15625 222.492188 254.558594 219.351562 256.382812 C 211.921875 260.699219 199.792969 260.699219 192.3125 256.382812 C 192.089844 256.253906 191.871094 256.121094 191.660156 255.988281 C 189.574219 254.660156 188.109375 253.089844 187.355469 251.398438 L 210.257812 238.175781 C 210.351562 238.1875 210.441406 238.199219 210.535156 238.210938 Z M 191.988281 256.945312 C 199.648438 261.367188 212.066406 261.367188 219.679688 256.945312 C 220.09375 256.703125 220.488281 256.453125 220.859375 256.191406 C 223.289062 254.5 224.839844 252.425781 225.308594 250.21875 C 225.34375 250.046875 225.375 249.875 225.398438 249.707031 C 225.703125 247.472656 224.925781 245.273438 223.148438 243.320312 L 225.136719 242.164062 L 236.523438 248.738281 L 205.890625 266.542969 L 175.050781 248.738281 L 175.664062 248.378906 L 181.175781 251.5625 C 182.085938 252.085938 183.105469 252.347656 184.125 252.347656 C 185.039062 252.347656 185.953125 252.136719 186.785156 251.714844 C 187.679688 253.683594 189.449219 255.480469 191.988281 256.945312 Z M 223.042969 231.089844 L 223.714844 232.277344 C 223.742188 232.328125 223.785156 232.367188 223.835938 232.398438 L 226.082031 233.695312 L 220.03125 237.210938 L 215.980469 234.871094 L 222.785156 230.941406 Z M 231.109375 226.136719 L 231.71875 227.210938 C 231.746094 227.257812 231.789062 227.300781 231.835938 227.332031 L 234.085938 228.628906 L 228.035156 232.140625 L 224.371094 230.027344 Z M 185.390625 103.996094 L 270.179688 152.945312 C 270.714844 153.253906 271.160156 153.699219 271.46875 154.234375 C 271.777344 154.765625 271.9375 155.375 271.9375 155.992188 L 271.9375 220.648438 L 261.867188 214.832031 L 261.867188 169.949219 C 261.867188 168.914062 261.59375 167.894531 261.078125 167 C 260.558594 166.105469 259.8125 165.359375 258.917969 164.839844 L 251.292969 160.441406 L 251.292969 149.285156 C 251.292969 148.25 251.019531 147.230469 250.503906 146.335938 C 249.984375 145.441406 249.238281 144.695312 248.34375 144.175781 L 183.253906 106.597656 L 183.253906 105.230469 C 183.253906 104.65625 183.566406 104.171875 184.085938 103.929688 C 184.507812 103.738281 184.980469 103.757812 185.390625 103.996094 Z M 246.15625 216.886719 L 170.800781 173.382812 L 170.800781 171.59375 L 250.804688 217.785156 C 250.855469 217.816406 250.914062 217.828125 250.96875 217.828125 C 251.023438 217.828125 251.082031 217.816406 251.132812 217.785156 C 251.230469 217.726562 251.292969 217.621094 251.292969 217.503906 L 251.292969 163.191406 L 257.726562 166.90625 C 258.261719 167.210938 258.707031 167.65625 259.015625 168.191406 C 259.320312 168.722656 259.484375 169.332031 259.484375 169.949219 L 259.484375 234.605469 L 237.964844 222.179688 L 246.15625 217.449219 C 246.253906 217.390625 246.316406 217.285156 246.316406 217.167969 C 246.316406 217.054688 246.253906 216.945312 246.15625 216.886719 Z M 118.371094 215.300781 L 112.804688 218.511719 C 111.867188 219.054688 111.765625 219.949219 111.765625 220.308594 C 111.765625 220.667969 111.867188 221.566406 112.804688 222.105469 L 197.59375 271.058594 C 198.226562 271.425781 198.945312 271.617188 199.675781 271.617188 C 200.40625 271.617188 201.125 271.425781 201.757812 271.058594 L 258.238281 238.449219 C 258.335938 238.390625 258.398438 238.285156 258.398438 238.167969 C 258.398438 238.054688 258.335938 237.945312 258.238281 237.886719 L 234.496094 224.179688 L 235.582031 223.554688 L 236.167969 223.894531 L 260.894531 238.167969 L 202.300781 272 C 200.679688 272.933594 198.667969 272.933594 197.050781 272 L 112.261719 223.046875 C 111.273438 222.472656 110.683594 221.453125 110.683594 220.308594 C 110.683594 219.167969 111.273438 218.144531 112.261719 217.574219 L 117.285156 214.671875 Z M 261.867188 215.582031 L 272.101562 221.492188 C 272.152344 221.519531 272.207031 221.535156 272.261719 221.535156 C 272.316406 221.535156 272.375 221.519531 272.425781 221.492188 C 272.523438 221.433594 272.585938 221.324219 272.585938 221.210938 L 272.585938 155.992188 C 272.585938 155.261719 272.394531 154.542969 272.03125 153.910156 C 271.664062 153.277344 271.136719 152.75 270.503906 152.386719 L 185.714844 103.433594 C 185.125 103.089844 184.425781 103.0625 183.816406 103.339844 C 183.058594 103.691406 182.605469 104.394531 182.605469 105.226562 L 182.605469 106.222656 L 181.519531 105.59375 L 181.519531 105.230469 C 181.519531 103.980469 182.226562 102.878906 183.363281 102.355469 C 184.304688 101.925781 185.359375 101.972656 186.257812 102.492188 L 271.046875 151.445312 C 271.84375 151.90625 272.507812 152.570312 272.96875 153.367188 C 273.429688 154.164062 273.671875 155.070312 273.671875 155.992188 L 273.671875 223.652344 L 261.867188 216.835938 Z M 192.6875 99.0625 L 277.234375 147.875 C 277.9375 148.28125 278.539062 148.84375 278.984375 149.519531 L 273.359375 152.765625 C 273.355469 152.761719 273.351562 152.753906 273.347656 152.75 C 273.234375 152.578125 273.113281 152.414062 272.984375 152.257812 C 272.960938 152.230469 272.941406 152.203125 272.917969 152.179688 C 272.789062 152.027344 272.652344 151.882812 272.507812 151.742188 C 272.484375 151.71875 272.457031 151.695312 272.433594 151.671875 C 272.285156 151.535156 272.132812 151.402344 271.96875 151.28125 C 271.949219 151.265625 271.925781 151.25 271.90625 151.234375 C 271.734375 151.109375 271.554688 150.992188 271.371094 150.882812 L 186.582031 101.929688 C 186.453125 101.855469 186.324219 101.792969 186.191406 101.734375 C 186.148438 101.714844 186.105469 101.703125 186.0625 101.683594 C 185.972656 101.648438 185.878906 101.613281 185.789062 101.585938 C 185.734375 101.570312 185.683594 101.554688 185.632812 101.542969 C 185.546875 101.519531 185.460938 101.5 185.375 101.484375 C 185.320312 101.472656 185.261719 101.464844 185.207031 101.457031 C 185.167969 101.449219 185.125 101.441406 185.085938 101.4375 L 189.617188 99.011719 C 190.585938 98.492188 191.734375 98.511719 192.6875 99.0625 Z M 171.855469 220.085938 L 148.21875 206.441406 C 148.121094 206.382812 147.996094 206.382812 147.894531 206.441406 L 130.171875 216.671875 C 130.070312 216.730469 130.007812 216.839844 130.007812 216.953125 C 130.007812 217.070312 130.070312 217.175781 130.171875 217.234375 L 153.804688 230.878906 C 153.855469 230.910156 153.910156 230.921875 153.964844 230.921875 C 154.023438 230.921875 154.078125 230.910156 154.128906 230.878906 L 171.855469 220.648438 C 171.953125 220.589844 172.015625 220.480469 172.015625 220.367188 C 172.015625 220.25 171.953125 220.144531 171.855469 220.085938 Z M 136.242188 213.917969 L 147.410156 220.367188 L 142.148438 223.402344 L 130.980469 216.953125 Z M 159.875 226.8125 L 137.605469 213.957031 L 136.890625 213.542969 L 148.058594 207.09375 L 171.042969 220.367188 Z M 142.796875 223.777344 L 143.066406 223.621094 L 148.058594 220.742188 L 157.960938 226.457031 L 159.226562 227.1875 L 153.964844 230.222656 Z M 128.101562 193.140625 L 192.984375 230.597656 C 193.035156 230.628906 193.089844 230.644531 193.144531 230.644531 C 193.203125 230.644531 193.257812 230.628906 193.308594 230.597656 L 217.640625 216.550781 L 225.75 211.871094 C 225.851562 211.8125 225.910156 211.707031 225.910156 211.589844 C 225.910156 211.472656 225.851562 211.367188 225.75 211.308594 L 160.867188 173.847656 C 160.765625 173.789062 160.644531 173.789062 160.542969 173.847656 L 128.101562 192.578125 C 128 192.636719 127.9375 192.742188 127.9375 192.859375 C 127.9375 192.972656 128 193.082031 128.101562 193.140625 Z M 209.398438 220.558594 L 201.257812 225.261719 L 193.796875 220.953125 L 201.417969 216.550781 C 201.519531 216.492188 201.582031 216.386719 201.582031 216.269531 C 201.582031 216.15625 201.519531 216.046875 201.417969 215.992188 L 193.796875 211.589844 L 201.257812 207.28125 L 216.828125 216.269531 Z M 144.484375 183.867188 L 149.1875 186.582031 L 151.945312 188.175781 L 144.484375 192.484375 L 137.023438 188.175781 Z M 152.59375 179.1875 L 168.167969 188.175781 L 160.703125 192.484375 L 145.132812 183.492188 Z M 208.71875 202.222656 L 201.257812 206.53125 L 193.796875 202.222656 L 201.257812 197.914062 Z M 216.828125 206.90625 L 209.367188 211.214844 L 201.90625 206.90625 L 209.367188 202.597656 Z M 193.144531 202.597656 L 200.605469 206.90625 L 193.144531 211.214844 L 185.683594 206.90625 Z M 184.386719 197.542969 L 176.925781 201.847656 L 169.464844 197.542969 L 176.925781 193.234375 Z M 168.167969 197.542969 L 160.703125 201.847656 L 153.242188 197.539062 L 160.703125 193.234375 Z M 176.925781 202.597656 L 184.386719 206.90625 L 176.925781 211.214844 L 169.464844 206.90625 Z M 185.878906 207.765625 L 192.496094 211.589844 L 185.035156 215.898438 L 177.574219 211.589844 L 185.035156 207.28125 Z M 177.574219 202.222656 L 185.035156 197.914062 L 192.496094 202.222656 L 185.035156 206.53125 Z M 168.816406 197.167969 L 161.351562 192.859375 L 168.816406 188.550781 L 176.277344 192.859375 Z M 160.054688 192.859375 L 152.59375 197.167969 L 145.132812 192.859375 L 152.59375 188.550781 Z M 161.355469 202.222656 L 168.816406 197.914062 L 176.277344 202.222656 L 168.816406 206.53125 Z M 193.144531 220.578125 L 185.683594 216.269531 L 185.980469 216.101562 L 193.148438 211.964844 L 200.609375 216.269531 Z M 185.035156 197.167969 L 177.574219 192.859375 L 185.035156 188.550781 L 192.496094 192.859375 Z M 176.925781 192.484375 L 169.464844 188.175781 L 176.925781 183.867188 L 184.386719 188.175781 Z M 144.484375 193.234375 L 192.496094 220.953125 L 185.035156 225.261719 L 137.023438 197.542969 Z M 185.683594 225.636719 L 185.875 225.523438 L 193.144531 221.328125 L 200.605469 225.636719 L 193.144531 229.945312 Z M 200.605469 197.542969 L 193.144531 201.847656 L 185.683594 197.542969 L 193.144531 193.234375 L 199.152344 196.699219 Z M 168.816406 187.800781 L 161.351562 183.492188 L 168.816406 179.1875 L 176.277344 183.492188 Z M 136.375 188.550781 L 143.835938 192.859375 L 136.375 197.167969 L 128.914062 192.859375 Z M 217.476562 215.898438 L 210.015625 211.589844 L 217.476562 207.28125 L 224.9375 211.589844 Z M 168.164062 178.8125 L 160.703125 183.117188 L 153.242188 178.8125 L 160.703125 174.503906 Z M 238.328125 205.914062 L 246.765625 210.785156 C 246.816406 210.816406 246.871094 210.832031 246.929688 210.832031 C 246.984375 210.832031 247.039062 210.816406 247.089844 210.785156 C 247.191406 210.730469 247.253906 210.621094 247.253906 210.507812 L 247.253906 148.398438 C 247.253906 148.285156 247.191406 148.175781 247.089844 148.117188 L 193.632812 117.253906 C 193.628906 117.253906 193.625 117.25 193.621094 117.25 L 191.21875 115.863281 L 190.007812 115.160156 C 190.003906 115.160156 190.003906 115.160156 190.003906 115.160156 L 162.371094 99.207031 C 162.269531 99.148438 162.148438 99.148438 162.046875 99.207031 C 161.945312 99.265625 161.882812 99.371094 161.882812 99.488281 L 161.882812 161.59375 C 161.882812 161.621094 161.886719 161.652344 161.894531 161.679688 C 161.917969 161.757812 161.972656 161.832031 162.046875 161.875 Z M 205.507812 124.859375 L 228.105469 199.265625 L 216.203125 192.394531 L 193.609375 117.988281 Z M 212.578125 190.300781 L 208.640625 188.027344 L 186.046875 113.625 L 189.679688 115.722656 C 189.6875 115.726562 189.691406 115.730469 189.695312 115.730469 L 189.980469 115.894531 Z M 198.082031 181.929688 L 175.488281 107.527344 L 182.734375 111.710938 L 205.332031 186.113281 Z M 198.082031 181.929688 " fill-opacity="1" fill-rule="nonzero"/></g></svg>