<svg xmlns="http://www.w3.org/2000/svg" xmlns:xlink="http://www.w3.org/1999/xlink" width="500" zoomAndPan="magnify" viewBox="0 0 375 374.999991" height="500" preserveAspectRatio="xMidYMid meet" version="1.0"><defs><clipPath id="7e1f4cbfae"><path d="M 1.753906 0 L 373.003906 0 L 373.003906 373 L 1.753906 373 Z M 1.753906 0 " clip-rule="nonzero"/></clipPath></defs><g clip-path="url(#7e1f4cbfae)"><path fill="#100f0d" d="M 318.46875 317.027344 L 263.398438 317.027344 L 263.398438 230.773438 C 263.398438 210.214844 263.03125 183.730469 234.761719 183.730469 C 206.488281 183.730469 201.6875 206.148438 201.6875 229.285156 L 201.6875 317.027344 L 146.617188 317.027344 L 146.617188 139.652344 L 199.496094 139.652344 L 199.496094 163.890625 L 200.230469 163.890625 C 211.011719 145.453125 231.0625 134.445312 252.394531 135.234375 C 308.21875 135.234375 318.503906 171.953125 318.503906 219.714844 L 318.503906 317.027344 Z M 84.449219 115.410156 C 66.796875 115.410156 52.476562 101.109375 52.476562 83.457031 C 52.476562 65.808594 66.78125 51.488281 84.429688 51.488281 C 102.078125 51.488281 116.398438 65.789062 116.398438 83.441406 C 116.398438 101.089844 102.097656 115.410156 84.445312 115.410156 M 112 317.027344 L 56.859375 317.027344 L 56.859375 139.652344 L 112 139.652344 Z M 345.9375 0.328125 L 29.183594 0.328125 C 14.214844 0.167969 1.929688 12.15625 1.753906 27.125 L 1.753906 345.191406 C 1.929688 360.179688 14.199219 372.167969 29.183594 372.007812 L 345.9375 372.007812 C 360.9375 372.203125 373.261719 360.195312 373.472656 345.191406 L 373.472656 27.109375 C 373.261719 12.105469 360.9375 0.117188 345.9375 0.308594 " fill-opacity="1" fill-rule="nonzero"/></g></svg>