<svg xmlns="http://www.w3.org/2000/svg" xmlns:xlink="http://www.w3.org/1999/xlink" width="500" zoomAndPan="magnify" viewBox="0 0 375 374.999991" height="500" preserveAspectRatio="xMidYMid meet" version="1.0"><defs><clipPath id="b9cd6f02b7"><path d="M 0 53.203125 L 375 53.203125 L 375 321.703125 L 0 321.703125 Z M 0 53.203125 " clip-rule="nonzero"/></clipPath></defs><g clip-path="url(#b9cd6f02b7)"><path fill="#100f0d" d="M 39.785156 309.523438 C 34.324219 309.523438 29.117188 307.953125 24.652344 305.039062 L 131.554688 195.542969 L 166.003906 230.574219 C 171.675781 236.339844 179.25 239.515625 187.339844 239.519531 C 187.34375 239.519531 187.34375 239.519531 187.347656 239.519531 C 195.425781 239.519531 203.003906 236.347656 208.667969 230.589844 L 243.210938 195.535156 L 350.332031 305.050781 C 345.875 307.957031 340.671875 309.523438 335.214844 309.523438 Z M 16.214844 296.457031 C 13.484375 292.09375 12.011719 287.042969 12.011719 281.765625 L 12.011719 93.039062 C 12.011719 87.730469 13.492188 82.652344 16.253906 78.28125 L 123.121094 186.960938 Z M 39.785156 65.285156 L 335.214844 65.285156 C 340.648438 65.285156 345.832031 66.832031 350.273438 69.710938 L 238.941406 182.726562 L 200.097656 222.148438 C 196.707031 225.59375 192.175781 227.492188 187.347656 227.492188 C 187.34375 227.492188 187.34375 227.492188 187.34375 227.492188 C 182.507812 227.492188 177.976562 225.589844 174.585938 222.144531 L 135.832031 182.730469 L 24.710938 69.722656 C 29.160156 66.835938 34.347656 65.285156 39.785156 65.285156 Z M 251.65625 186.960938 L 358.734375 78.261719 C 361.503906 82.644531 362.988281 87.726562 362.988281 93.039062 L 362.988281 281.765625 C 362.988281 287.046875 361.515625 292.101562 358.769531 296.472656 Z M 363.449219 65.015625 C 363.449219 65.015625 363.449219 65.011719 363.449219 65.011719 C 363.445312 65.011719 363.445312 65.007812 363.441406 65.007812 C 363.441406 65.003906 363.441406 65.003906 363.4375 65 C 363.4375 65 363.433594 64.996094 363.429688 64.992188 C 355.914062 57.425781 345.894531 53.257812 335.214844 53.257812 L 39.785156 53.257812 C 29.097656 53.257812 19.066406 57.433594 11.542969 65.019531 C 11.539062 65.023438 11.535156 65.027344 11.53125 65.03125 C 4.085938 72.507812 -0.0195312 82.457031 -0.0195312 93.039062 L -0.0195312 281.765625 C -0.0195312 292.328125 4.074219 302.265625 11.5 309.753906 C 11.519531 309.773438 11.539062 309.792969 11.558594 309.8125 C 11.5625 309.816406 11.566406 309.820312 11.570312 309.828125 C 11.574219 309.832031 11.582031 309.835938 11.585938 309.839844 C 19.113281 317.386719 29.121094 321.550781 39.785156 321.550781 L 335.214844 321.550781 C 345.886719 321.550781 355.898438 317.386719 363.414062 309.839844 C 363.414062 309.835938 363.417969 309.835938 363.421875 309.832031 C 363.425781 309.832031 363.425781 309.828125 363.429688 309.824219 C 363.449219 309.804688 363.46875 309.789062 363.488281 309.769531 C 370.925781 302.273438 375.019531 292.328125 375.019531 281.765625 L 375.019531 93.039062 C 375.019531 82.453125 370.910156 72.5 363.449219 65.015625 " fill-opacity="1" fill-rule="nonzero"/></g></svg>